<svg viewBox="0 0 40 40" xmlns="http://www.w3.org/2000/svg">
  <g clip-path="url(#clip0)">
    <path d="M39.8335 7C39.6668 6.83336 39.5001 6.66664 39.1668 6.66664H7.50012L6.66676 2.33336C6.66676 2 6.16676 1.66672 5.8334 1.66672H0.833403C0.333481 1.66664 0.00012207 2 0.00012207 2.5C0.00012207 3 0.333481 3.33336 0.833481 3.33336H5.16684L9.16684 23.6667C9.66684 26.3334 12.1668 28.3334 14.8335 28.3334H34.0001C34.5001 28.3334 34.8335 28 34.8335 27.5C34.8335 27 34.5001 26.6667 34.0001 26.6667H15.0001C13.6668 26.6667 12.3335 26 11.6668 24.8333L36.0001 21.5C36.3335 21.5 36.6668 21.1667 36.6668 20.8334L40.0001 7.5C40.0001 7.5 40.0001 7.16664 39.8335 7ZM35.1668 20L10.8334 23.1667L7.8334 8.16664H38.0001L35.1668 20Z"/>
    <path d="M14.1668 30C11.8335 30 10.0001 31.8334 10.0001 34.1666C10.0001 36.5 11.8335 38.3333 14.1668 38.3333C16.5001 38.3333 18.3334 36.4999 18.3334 34.1666C18.3335 31.8334 16.5001 30 14.1668 30ZM14.1668 36.6666C12.8334 36.6666 11.6668 35.4999 11.6668 34.1666C11.6668 32.8334 12.8334 31.6666 14.1668 31.6666C15.5001 31.6666 16.6668 32.8334 16.6668 34.1666C16.6668 35.4999 15.5001 36.6666 14.1668 36.6666Z"/>
    <path d="M30.8335 30C28.5001 30 26.6669 31.8334 26.6669 34.1666C26.6669 36.5 28.5002 38.3333 30.8335 38.3333C33.1669 38.3333 35.0001 36.4999 35.0001 34.1666C35.0001 31.8334 33.1668 30 30.8335 30ZM30.8335 36.6666C29.5001 36.6666 28.3335 35.4999 28.3335 34.1666C28.3335 32.8334 29.5001 31.6666 30.8335 31.6666C32.1669 31.6666 33.3335 32.8334 33.3335 34.1666C33.3335 35.4999 32.1668 36.6666 30.8335 36.6666Z"/>
  </g>
  <defs>
    <clipPath id="clip0">
      <rect width="40" height="40" fill="white" transform="translate(0.00012207)"/>
    </clipPath>
  </defs>
</svg>
