<svg viewBox="0 0 32 32" xmlns="http://www.w3.org/2000/svg">
  <path d="M29.4667 14.6667C29.0667 14.5334 28.8 14.8001 28.6667 15.2001L28.1334 17.4667L8.66669 20.0001L6.26669 8.00006H15.3334C15.7334 8.00006 16.0001 7.73337 16.0001 7.33337C16.0001 6.93337 15.7334 6.66669 15.3334 6.66669H6L5.33331 3.20006C5.33331 2.93337 4.93331 2.66675 4.66663 2.66675H0.666625C0.266688 2.66675 0 2.93344 0 3.33337C0 3.73337 0.266687 4.00006 0.666687 4.00006H4.13338L7.33337 20.2667C7.73338 22.4001 9.73338 24.0001 11.8667 24.0001H27.2C27.6 24.0001 27.8667 23.7334 27.8667 23.3334C27.8667 22.9334 27.6 22.6667 27.2 22.6667H12C10.9333 22.6667 9.86669 22.1334 9.33331 21.2L28.8 18.5334C29.0667 18.5334 29.3333 18.2667 29.3333 18.0001L30 15.3334C30.1333 15.2001 29.8667 14.8001 29.4667 14.6667Z" />
  <path d="M11.3333 25.3333C9.46662 25.3333 8 26.7999 8 28.6666C8 30.5332 9.46669 31.9999 11.3333 31.9999C13.2 31.9999 14.6666 30.5333 14.6666 28.6666C14.6666 26.8 13.2 25.3333 11.3333 25.3333ZM11.3333 30.6666C10.2666 30.6666 9.33331 29.7333 9.33331 28.6666C9.33331 27.6 10.2666 26.6666 11.3333 26.6666C12.4 26.6666 13.3333 27.6 13.3333 28.6666C13.3333 29.7333 12.4 30.6666 11.3333 30.6666Z" />
  <path d="M27.3333 6.66669H25.3333V4.66669C25.3333 4.26669 25.0666 4 24.6666 4C24.2667 4 24 4.26669 24 4.66669V6.66669H22C21.6 6.66669 21.3333 6.93337 21.3333 7.33337C21.3333 7.73338 21.6 8.00006 22 8.00006H24V10.0001C24 10.4001 24.2667 10.6667 24.6667 10.6667C25.0667 10.6667 25.3334 10.4001 25.3334 10.0001V8.00006H27.3334C27.7334 8.00006 28.0001 7.73338 28.0001 7.33337C28 6.93337 27.7333 6.66669 27.3333 6.66669Z" />
  <path d="M24.6667 25.3333C22.8 25.3333 21.3334 26.7999 21.3334 28.6666C21.3334 30.5332 22.8 31.9999 24.6667 31.9999C26.5333 31.9999 28 30.5333 28 28.6666C28 26.8 26.5333 25.3333 24.6667 25.3333ZM24.6667 30.6666C23.6 30.6666 22.6667 29.7333 22.6667 28.6666C22.6667 27.6 23.6 26.6666 24.6667 26.6666C25.7334 26.6666 26.6667 27.6 26.6667 28.6666C26.6667 29.7333 25.7333 30.6666 24.6667 30.6666Z" />
  <path d="M24.6667 0C20.6667 0 17.3334 3.33331 17.3334 7.33331C17.3334 11.3333 20.6667 14.6666 24.6667 14.6666C28.6667 14.6666 32 11.3333 32 7.33331C32 3.33331 28.6667 0 24.6667 0ZM24.6667 13.3333C21.3334 13.3333 18.6667 10.6666 18.6667 7.33331C18.6667 4 21.3334 1.33331 24.6667 1.33331C28 1.33331 30.6667 4 30.6667 7.33331C30.6667 10.6667 28 13.3333 24.6667 13.3333Z" />
</svg>
