<svg viewBox="0 0 40 40" xmlns="http://www.w3.org/2000/svg">
  <g clip-path="url(#clip0)">
    <path d="M39.917 17.7226L39.9144 17.7178L33.5629 5.83573L38.4203 4.46774C39.5597 4.14618 40.2261 2.95709 39.9055 1.81653C39.584 0.677059 38.3954 0.010486 37.2555 0.331194L35.4516 0.839015C35.1401 0.926672 34.9586 1.25027 35.0462 1.56176C35.134 1.87325 35.4574 2.05489 35.7691 1.967L37.5728 1.45918C38.0908 1.31348 38.6314 1.61653 38.7775 2.13419C38.9233 2.65271 38.6202 3.19358 38.1022 3.33976L22.8464 7.63631V5.60612L33.5129 2.60217C33.8244 2.51443 34.0058 2.19083 33.9181 1.87934C33.8304 1.56785 33.5068 1.38637 33.1953 1.47418L22.8464 4.38868V2.72389C22.8464 1.22191 21.6245 -6.10352e-05 20.1225 -6.10352e-05C18.6205 -6.10352e-05 17.3985 1.22191 17.3985 2.72389V5.92269L1.82463 10.3087C0.685235 10.6302 0.0188179 11.8192 0.33937 12.9599C0.599608 13.8819 1.44962 14.5257 2.40643 14.5257C2.60308 14.5257 2.79925 14.4987 2.99027 14.4452L6.12641 13.562L0.117257 24.8035C0.0710844 24.8873 0.0446777 24.9835 0.0446777 25.0859V25.5835C0.0446777 29.5795 3.29559 32.8305 7.29151 32.8305C8.62895 32.8305 9.93561 32.4629 11.0704 31.7675C11.3463 31.5984 11.4329 31.2377 11.2638 30.9618C11.0948 30.6859 10.734 30.5992 10.458 30.7683C9.50764 31.3507 8.4127 31.6586 7.29151 31.6586C3.97122 31.6586 1.26446 28.9811 1.2172 25.6718H13.3667C13.3479 27.0204 12.8964 28.2902 12.0585 29.3498C11.8577 29.6036 11.9007 29.972 12.1546 30.1728C12.4084 30.3736 12.7769 30.3306 12.9776 30.0767C13.9992 28.7852 14.5392 27.2314 14.5392 25.5835V25.0859C14.5392 24.9813 14.5115 24.8833 14.4635 24.7983L8.1523 12.9915L17.3985 10.3878V29.9574H17.3925C17.3925 29.9574 17.3925 31.3311 17.3925 32.8771C17.3925 33.4855 17.3925 34.3927 17.3925 34.3927L11.7519 34.3927C10.206 34.3927 8.94833 35.6504 8.94833 37.1964C8.94833 38.7423 10.206 40 11.7519 40H28.493C30.0389 40 31.2967 38.7423 31.2967 37.1964C31.2967 35.6504 30.0389 34.3927 28.493 34.3927L22.8525 34.3927C22.8525 33.925 22.8525 33.4855 22.8525 32.8771C22.8525 31.3312 22.8464 30.6249 22.8525 29.9574H22.8464V8.85383L31.6234 6.38199L25.5638 17.7178L25.5616 17.722C25.5175 17.8043 25.492 17.899 25.492 17.9988V18.4959C25.492 22.492 28.743 25.743 32.7391 25.743C36.7352 25.743 39.9862 22.492 39.9862 18.4959V17.9988C39.9862 17.899 39.9611 17.805 39.917 17.7226ZM7.29182 13.8677L12.9753 24.4999H1.60837L7.29182 13.8677ZM18.5704 12.2756H21.6745V15.3797H18.5704V12.2756ZM20.1225 1.17183C20.9783 1.17183 21.6745 1.86809 21.6745 2.72389V11.1038H18.5704V2.72389C18.5704 1.86809 19.2667 1.17183 20.1225 1.17183ZM7.13924 12.0593C7.1358 12.0603 7.13237 12.0612 7.12893 12.0622L2.67339 13.3169C2.58605 13.3414 2.4962 13.3538 2.40643 13.3538C1.97182 13.3538 1.58564 13.0608 1.46736 12.6422C1.32165 12.1236 1.6247 11.5827 2.1426 11.4366L17.3985 7.14013V9.17032L7.13924 12.0593ZM30.1248 37.1963C30.1248 38.0961 29.3928 38.828 28.493 38.828H11.7519C10.8522 38.828 10.1202 38.0961 10.1202 37.1963C10.1202 36.2965 10.8522 35.5646 11.7519 35.5646H28.493C29.3928 35.5646 30.1248 36.2966 30.1248 37.1963ZM21.6745 32.8771C21.6745 33.7768 21.6745 34.3927 21.6745 34.3927H18.5704V32.8771C18.5704 31.9774 18.5704 34.5134 18.5704 34.3927H21.6745C21.785 34.3927 21.6745 31.9774 21.6745 32.8771ZM18.5704 34.3927V16.5516H21.6745V34.3927H18.5704ZM38.4226 17.4129H27.0556L32.7391 6.78059L38.4226 17.4129ZM32.7391 24.5712C29.4189 24.5712 26.7122 21.8939 26.6645 18.5848H38.8137C38.7661 21.894 36.0593 24.5712 32.7391 24.5712Z"/>
    <path d="M19.5658 7.61229C19.7645 8.08268 20.4503 8.08534 20.6478 7.61229C20.8567 7.11198 20.3012 6.61792 19.8286 6.87299C19.5663 7.01456 19.4556 7.33713 19.5658 7.61229Z"/>
  </g>
  <defs>
    <clipPath id="clip0">
      <rect width="40" height="40" fill="white" transform="translate(0.00012207)"/>
    </clipPath>
  </defs>
</svg>
