<svg viewBox="0 0 24 24" xmlns="http://www.w3.org/2000/svg">
  <path d="M11.4744 14.6003C11.7868 14.8673 12.0921 14.8616 12.4017 14.5946C12.433 14.6472 12.4699 14.6841 12.4784 14.7267C12.7042 15.8685 12.93 17.0102 13.1487 18.152C13.1629 18.2244 13.1516 18.3111 13.1232 18.3792C12.8164 19.1305 12.5026 19.8789 12.1958 20.6301C12.1433 20.7579 12.0822 20.8204 11.9288 20.8247C11.7712 20.8304 11.7329 20.7466 11.6874 20.6344C11.3906 19.9116 11.0853 19.1901 10.7956 18.463C10.7445 18.3316 10.7302 18.1887 10.7544 18.0498C10.9632 16.9492 11.1847 15.8514 11.4048 14.7537C11.4133 14.7082 11.4432 14.6671 11.4744 14.6003ZM21.3755 15.931C21.0858 15.7009 20.8287 15.4765 20.5518 15.282C20.1712 15.0136 19.7324 14.8872 19.2808 14.7963C18.7539 14.6912 18.4543 14.3646 18.3861 13.8391C18.3733 13.7383 18.3677 13.6375 18.3535 13.5366C18.3179 13.2668 18.3606 13.0595 18.5963 12.8521C18.795 12.6803 18.9532 12.4667 19.0597 12.2266C19.1663 11.9865 19.2185 11.7259 19.2126 11.4633C19.2084 11.0273 19.2211 10.5899 19.2098 10.1539C19.2 9.7304 19.0608 9.32004 18.8107 8.97806C18.7379 8.87745 18.6455 8.79254 18.5391 8.72837C18.4327 8.66421 18.3145 8.6221 18.1916 8.60457C17.8706 8.5506 17.5454 8.52362 17.2273 8.46256C16.7686 8.37593 16.4278 8.56196 16.1721 8.91273C15.8737 9.30193 15.7115 9.77848 15.7106 10.2689C15.7135 10.6396 15.7348 11.0131 15.7049 11.3809C15.6652 11.8921 15.8711 12.2969 16.1764 12.6746C16.2133 12.7201 16.2488 12.7669 16.29 12.8067C16.4675 12.9814 16.6081 13.1546 16.611 13.4386C16.6124 13.5764 16.7629 13.7426 16.8879 13.8462C17.1904 14.0947 17.517 14.3134 17.8337 14.5449C18.2271 14.8318 18.3819 15.2379 18.4188 15.7066C18.4898 16.6098 18.5651 17.5116 18.6389 18.4133C18.6659 18.7527 18.7042 19.0921 18.7113 19.4316C18.7142 19.5366 18.6545 19.6687 18.5807 19.744C18.4259 19.9016 18.2427 20.0294 18.0396 20.1942C18.0169 20.0876 17.997 20.0351 17.9942 19.9811C17.9615 19.2626 17.9473 18.544 17.8976 17.8282C17.8422 17.0415 17.7542 16.2562 17.6789 15.4708C17.659 15.2521 17.5269 15.103 17.3636 14.9724C16.5187 14.3021 15.58 13.8391 14.5078 13.6588C13.6997 13.5239 13.197 12.9586 13.1459 12.1435C13.1303 11.8978 13.1033 11.6507 13.109 11.4065C13.1118 11.3156 13.1729 11.2005 13.2439 11.1409C13.9241 10.5672 14.3118 9.85143 14.3331 8.95392C14.343 8.56196 14.3374 8.16859 14.3345 7.77664C14.3282 6.9878 14.0864 6.21883 13.6401 5.56835C13.3546 5.13664 12.9655 4.88386 12.4159 4.92362C12.0609 4.94918 11.703 4.94066 11.3466 4.93072C10.8169 4.91652 10.4263 5.15652 10.1366 5.5783C9.766 6.11936 9.60836 6.73711 9.56576 7.38043C9.53594 7.85048 9.58706 8.32764 9.55156 8.7977C9.50327 9.46232 9.72907 10.0218 10.1182 10.5345C10.2603 10.7277 10.4145 10.9117 10.5797 11.0855C10.7558 11.2644 10.7871 11.459 10.753 11.6976C10.7146 11.9745 10.7445 12.2642 10.6891 12.5369C10.5613 13.1759 10.1508 13.5565 9.5118 13.6559C8.38138 13.832 7.39014 14.3149 6.47132 14.9809C6.10493 15.2465 6.07795 15.6384 6.02824 16.0218C5.85925 17.3355 5.84647 18.6562 5.85073 19.9783C5.85073 20.0209 5.84221 20.0635 5.83795 20.1061C5.49854 20.0479 5.11795 19.6218 5.12221 19.3023C5.13357 18.4076 5.13925 17.5144 5.16907 16.6211C5.18043 16.2618 5.25002 15.9026 5.2912 15.5433C5.31961 15.2919 5.43321 15.086 5.63345 14.934C6.07937 14.5975 6.52103 14.2552 6.98256 13.94C7.19984 13.7923 7.30351 13.6091 7.29499 13.3634C7.2898 13.2845 7.30272 13.2055 7.33275 13.1324C7.36278 13.0593 7.40912 12.9941 7.46824 12.9416C7.61154 12.7972 7.74176 12.6404 7.85736 12.473C8.08106 12.1831 8.19477 11.8234 8.1783 11.4576C8.157 11.0443 8.18256 10.6282 8.17262 10.215C8.15753 9.6814 7.97577 9.16594 7.65286 8.7409C7.42422 8.43273 7.10753 8.2964 6.72836 8.29356C6.44576 8.29214 6.16174 8.29782 5.87771 8.29214C5.72822 8.28521 5.57947 8.31699 5.44587 8.38441C5.31226 8.45184 5.19833 8.55262 5.11511 8.67699C4.82133 9.08724 4.65398 9.57447 4.63369 10.0786C4.60221 10.5942 4.60269 11.1111 4.63511 11.6266C4.67487 12.1648 4.97878 12.5823 5.36647 12.9459C5.45829 13.0298 5.51762 13.1435 5.53404 13.2668C5.54665 13.5061 5.52995 13.7459 5.48434 13.9811C5.39345 14.4313 5.10659 14.7182 4.65215 14.7906C3.8631 14.9122 3.13918 15.2995 2.60008 15.8884C2.58588 15.904 2.566 15.9125 2.51487 15.9494C1.96559 14.6681 1.69035 13.2861 1.70682 11.8921C1.73097 9.08315 2.73357 6.67605 4.70469 4.69356C8.57452 0.799597 14.8955 0.681727 18.8959 4.41522C20.7506 6.14492 21.8413 8.27936 22.121 10.8015C22.317 12.571 22.094 14.2907 21.3755 15.931ZM11.9317 23.8865C18.4443 23.9134 23.6491 18.7172 23.872 12.446C23.9416 10.879 23.7011 9.31375 23.1645 7.8399C22.6279 6.36604 21.8057 5.01259 20.745 3.85714C19.6842 2.70169 18.4059 1.76697 16.9832 1.10655C15.5605 0.446135 14.0215 0.0730181 12.4543 0.0085908C5.33949 -0.24561 0.2228 5.3454 0.00836252 11.4661C-0.241578 18.5724 5.4957 23.9404 11.9317 23.8865Z"/>
</svg>
