<svg viewBox="0 0 40 40" xmlns="http://www.w3.org/2000/svg">
  <g clip-path="url(#clip0)">
    <path d="M28.0869 2.96751C25.0473 2.96751 22.2055 4.11227 20.0001 6.20797C17.7947 4.11227 14.9529 2.96751 11.9133 2.96751C5.34434 2.96751 0.00012207 8.44008 0.00012207 15.1668C0.00012207 19.0666 3.32379 23.9266 9.87895 29.6117C14.6716 33.7683 19.5317 36.8791 19.5802 36.9101C19.7082 36.9917 19.8542 37.0325 20.0001 37.0325C20.1461 37.0325 20.292 36.9916 20.4201 36.91C20.4686 36.8791 25.3287 33.7682 30.1214 29.6116C36.6764 23.9266 40.0001 19.0666 40.0001 15.1668C40.0001 8.44008 34.6559 2.96751 28.0869 2.96751ZM29.1111 28.4196C25.2138 31.8012 21.2689 34.4795 20.0001 35.3181C18.7332 34.481 14.7987 31.8101 10.9026 28.4312C4.79231 23.132 1.56262 18.5452 1.56262 15.1668C1.56262 9.30157 6.20598 4.53001 11.9133 4.53001C14.7825 4.53001 17.4506 5.70923 19.4259 7.8504C19.5738 8.01071 19.782 8.10188 20.0001 8.10188C20.2182 8.10188 20.4265 8.01071 20.5743 7.8504C22.5497 5.7093 25.2177 4.53008 28.0869 4.53008C33.7943 4.53001 38.4376 9.30157 38.4376 15.1668C38.4376 18.5425 35.2125 23.1252 29.1111 28.4196Z"/>
    <path d="M27.1391 7.28958L27.1097 7.29466C26.6849 7.37013 26.4017 7.77568 26.4771 8.20052C26.5444 8.57912 26.8739 8.84521 27.2454 8.84521C27.2908 8.84521 27.3368 8.84122 27.3829 8.83302L27.3985 8.83037C27.8239 8.75872 28.1108 8.35576 28.0392 7.93029C27.9675 7.50466 27.5642 7.21818 27.1391 7.28958Z"/>
    <path d="M34.3013 10.2642C33.3421 8.94644 31.9796 7.96495 30.4649 7.5005C30.0524 7.37386 29.6155 7.60589 29.489 8.01839C29.3625 8.43089 29.5944 8.86784 30.0069 8.99433C32.5037 9.75995 34.2474 12.2035 34.2474 14.9368C34.2474 15.3682 34.5972 15.718 35.0287 15.718C35.4602 15.718 35.8099 15.3682 35.8099 14.9367C35.8099 13.2356 35.2882 11.6199 34.3013 10.2642Z"/>
  </g>
  <defs>
    <clipPath id="clip0">
      <rect width="40" height="40" fill="white" transform="translate(0.00012207)"/>
    </clipPath>
  </defs>
</svg>
