<svg viewBox="0 0 240 65" xmlns="http://www.w3.org/2000/svg">
  <path d="M2.87216 4.84863C2.87216 4.38607 3.03964 3.97135 3.3746 3.60449C3.72551 3.23763 4.1163 3.0542 4.54697 3.0542C5.80706 3.0542 6.44508 3.65234 6.46103 4.84863L6.62851 21.0942C6.64446 23.4709 6.97145 25.5604 7.60947 27.3628C8.24749 29.1652 9.25237 30.5688 10.6241 31.5737C12.0118 32.5786 13.8222 33.0811 16.0553 33.0811C18.5276 33.0811 20.5055 32.5786 21.9889 31.5737C23.4723 30.5688 24.5489 29.1891 25.2188 27.4346C25.8888 25.68 26.2237 23.6862 26.2237 21.4531L26.1759 4.82471V4.80078C26.1759 4.30632 26.3434 3.88363 26.6783 3.53271C27.0292 3.1818 27.4519 3.00635 27.9464 3.00635C28.4408 3.00635 28.8635 3.1818 29.2144 3.53271C29.5813 3.88363 29.7647 4.30632 29.7647 4.80078V4.82471L29.8126 21.4292C29.8126 26.1825 28.6801 29.9069 26.4151 32.6025C24.1661 35.2982 20.7447 36.646 16.151 36.646C13.2161 36.646 10.7836 35.992 8.85361 34.6841C6.92359 33.3602 5.48007 31.5339 4.52304 29.2051C3.56601 26.8604 3.07154 24.1647 3.03964 21.1182L2.87216 4.87256V4.84863ZM33.88 4.84863C33.88 4.46582 34.0554 4.09896 34.4063 3.74805C34.7732 3.39714 35.156 3.22168 35.5548 3.22168C36.4321 3.22168 37.0222 3.58057 37.3253 4.29834L49.4796 30.3057L60.3897 4.03516C60.7088 3.26953 61.3069 2.88672 62.1842 2.88672C62.5989 2.88672 62.9817 3.06217 63.3326 3.41309C63.6835 3.74805 63.859 4.11491 63.859 4.51367C63.859 4.88053 63.8191 5.16764 63.7393 5.375L51.2501 35.5693C51.1384 35.8405 50.9231 36.0957 50.6041 36.335C50.2851 36.5902 49.9421 36.7178 49.5753 36.7178C48.8256 36.7178 48.2833 36.3589 47.9483 35.6411L34.0475 5.75781C33.9358 5.53451 33.88 5.23145 33.88 4.84863ZM67.9503 4.729C67.9503 4.23454 68.1257 3.81185 68.4767 3.46094C68.8276 3.11003 69.2503 2.93457 69.7447 2.93457L92.1632 2.9585H92.1871C92.6816 2.9585 93.1043 3.13395 93.4552 3.48486C93.8061 3.83577 93.9815 4.25846 93.9815 4.75293C93.9815 5.2474 93.8061 5.67008 93.4552 6.021C93.1043 6.37191 92.6816 6.54736 92.1871 6.54736H92.1632L71.5392 6.52344L71.5631 17.7686C71.6109 17.7686 71.6508 17.7686 71.6827 17.7686C71.7306 17.7526 71.7704 17.7446 71.8023 17.7446L90.2013 17.8643C90.7117 17.8643 91.1344 18.0397 91.4693 18.3906C91.8202 18.7256 91.9957 19.1882 91.9957 19.7783C91.9957 20.2249 91.8123 20.6157 91.4454 20.9507C91.0785 21.2856 90.6638 21.4531 90.2013 21.4531H90.1773L71.7784 21.3335H71.587L71.6109 32.459L92.1632 32.4351H92.1871C92.6816 32.4351 93.1043 32.6105 93.4552 32.9614C93.8061 33.3123 93.9815 33.735 93.9815 34.2295C93.9815 34.724 93.8061 35.1466 93.4552 35.4976C93.1043 35.8485 92.6816 36.0239 92.1871 36.0239H92.1632L69.8165 36.0479C69.322 36.0479 68.8993 35.8724 68.5484 35.5215C68.1975 35.1706 68.0221 34.7479 68.0221 34.2534L67.9503 4.729ZM97.5704 4.729C97.5704 4.21859 97.7459 3.77995 98.0968 3.41309C98.4636 3.04622 98.8943 2.86279 99.3888 2.86279H123.338C123.833 2.86279 124.256 3.03027 124.607 3.36523C124.957 3.68424 125.133 4.09098 125.133 4.58545C125.133 5.07992 124.957 5.51855 124.607 5.90137C124.256 6.26823 123.825 6.45166 123.315 6.45166H113.122V34.6123C113.122 35.1068 112.939 35.5295 112.572 35.8804C112.205 36.2313 111.774 36.4067 111.28 36.4067C110.785 36.4067 110.371 36.2313 110.036 35.8804C109.701 35.5295 109.533 35.1068 109.533 34.6123V6.45166H99.3648C98.8704 6.45166 98.4477 6.29215 98.0968 5.97314C97.7459 5.63818 97.5704 5.22347 97.5704 4.729ZM144.656 2.83887C147.001 2.83887 149.146 3.26953 151.092 4.13086C153.054 4.99219 154.745 6.19645 156.165 7.74365C157.584 9.29085 158.677 11.0933 159.442 13.1509C160.224 15.1925 160.615 17.4017 160.615 19.7783C160.615 22.9525 159.945 25.8076 158.605 28.3438C157.265 30.8639 155.399 32.8577 153.006 34.3252C150.614 35.7926 147.83 36.5264 144.656 36.5264C141.434 36.5264 138.627 35.8006 136.234 34.3491C133.842 32.8817 131.992 30.8879 130.684 28.3677C129.376 25.8475 128.722 22.9844 128.722 19.7783C128.722 17.4495 129.113 15.2643 129.894 13.2227C130.676 11.165 131.776 9.36263 133.196 7.81543C134.631 6.25228 136.322 5.03206 138.268 4.15479C140.214 3.27751 142.344 2.83887 144.656 2.83887ZM144.656 6.49951C142.168 6.49951 139.999 7.08171 138.149 8.24609C136.298 9.39453 134.863 10.9736 133.842 12.9834C132.821 14.9772 132.311 17.2422 132.311 19.7783C132.311 21.5329 132.622 23.1997 133.244 24.7788C133.882 26.342 134.759 27.7376 135.876 28.9658C137.008 30.1781 138.316 31.1351 139.799 31.8369C141.299 32.5387 142.918 32.8896 144.656 32.8896C146.379 32.8896 147.99 32.5228 149.489 31.7891C151.005 31.0553 152.329 30.0664 153.461 28.8223C154.609 27.5781 155.503 26.1745 156.141 24.6113C156.779 23.0482 157.098 21.4372 157.098 19.7783C157.098 17.1465 156.547 14.8337 155.447 12.8398C154.362 10.846 152.879 9.29085 150.997 8.17432C149.13 7.05778 147.017 6.49951 144.656 6.49951ZM202.126 34.8755C202.126 35.3381 201.951 35.7368 201.6 36.0718C201.265 36.4067 200.922 36.5742 200.571 36.5742C200.252 36.5742 199.957 36.4945 199.686 36.335C199.414 36.1914 199.215 36.0798 199.087 36C197.684 34.9951 196.456 33.8228 195.403 32.4829C194.366 31.1431 193.489 29.6995 192.771 28.1523C192.101 26.6849 191.391 25.5285 190.642 24.6831C189.908 23.8218 189.023 23.2077 187.986 22.8408C186.949 22.458 185.633 22.2586 184.038 22.2427L181.263 22.2188L181.287 34.4927V34.5405C181.287 35.019 181.103 35.4417 180.736 35.8086C180.386 36.1595 179.971 36.335 179.492 36.335C178.998 36.335 178.575 36.1595 178.224 35.8086C177.873 35.4417 177.698 35.0111 177.698 34.5166L177.626 4.60938C177.626 4.09896 177.802 3.67627 178.152 3.34131C178.503 3.00635 178.918 2.83089 179.397 2.81494L185.761 2.79102H186.311C189.007 2.79102 191.383 3.14193 193.441 3.84375C195.499 4.54557 197.11 5.63021 198.274 7.09766C199.438 8.54915 200.021 10.4154 200.021 12.6963C200.021 14.2913 199.686 15.695 199.016 16.9072C198.346 18.1035 197.469 19.1084 196.384 19.9219C195.299 20.7354 194.127 21.3415 192.867 21.7402C193.585 22.458 194.294 23.4948 194.996 24.8506C195.921 26.6211 196.838 28.2161 197.748 29.6357C198.657 31.0553 199.861 32.3075 201.36 33.3921C201.871 33.759 202.126 34.2534 202.126 34.8755ZM186.431 6.37988H181.215L181.263 18.9888C181.343 18.9728 181.446 18.9648 181.574 18.9648L186.479 18.917C189.414 18.8851 191.814 18.3906 193.68 17.4336C195.546 16.4606 196.48 14.8416 196.48 12.5767C196.48 11.0135 196.025 9.78532 195.116 8.89209C194.207 7.98291 192.986 7.33691 191.455 6.9541C189.94 6.57129 188.265 6.37988 186.431 6.37988ZM206.911 4.84863C206.911 4.38607 207.079 3.97135 207.414 3.60449C207.765 3.23763 208.155 3.0542 208.586 3.0542C209.846 3.0542 210.484 3.65234 210.5 4.84863L210.668 21.0942C210.684 23.4709 211.011 25.5604 211.649 27.3628C212.287 29.1652 213.291 30.5688 214.663 31.5737C216.051 32.5786 217.861 33.0811 220.094 33.0811C222.567 33.0811 224.545 32.5786 226.028 31.5737C227.511 30.5688 228.588 29.1891 229.258 27.4346C229.928 25.68 230.263 23.6862 230.263 21.4531L230.215 4.82471V4.80078C230.215 4.30632 230.382 3.88363 230.717 3.53271C231.068 3.1818 231.491 3.00635 231.985 3.00635C232.48 3.00635 232.903 3.1818 233.254 3.53271C233.62 3.88363 233.804 4.30632 233.804 4.80078V4.82471L233.852 21.4292C233.852 26.1825 232.719 29.9069 230.454 32.6025C228.205 35.2982 224.784 36.646 220.19 36.646C217.255 36.646 214.823 35.992 212.893 34.6841C210.963 33.3602 209.519 31.5339 208.562 29.2051C207.605 26.8604 207.111 24.1647 207.079 21.1182L206.911 4.87256V4.84863Z" fill="white"/>
  <path d="M168.869 36.0957C167.944 36.0957 167.139 35.7687 166.453 35.1147C165.767 34.4608 165.424 33.6712 165.424 32.7461C165.424 31.821 165.767 31.0394 166.453 30.4014C167.139 29.7474 167.944 29.4204 168.869 29.4204C169.81 29.4204 170.624 29.7474 171.31 30.4014C171.996 31.0394 172.338 31.821 172.338 32.7461C172.338 33.6712 171.996 34.4608 171.31 35.1147C170.624 35.7687 169.81 36.0957 168.869 36.0957Z" fill="#FA7268"/>
  <line y1="45" x2="240" y2="45" stroke="#FA7268"/>
  <path d="M9.52307 60H8.26307V51.11H5.14107V50.004H12.6311V51.11H9.52307V60ZM14.1384 50.004H16.9944C18.245 50.004 19.1877 50.1907 19.8224 50.564C20.4664 50.928 20.7884 51.5673 20.7884 52.482C20.7884 53.07 20.625 53.56 20.2984 53.952C19.9717 54.3347 19.5004 54.582 18.8844 54.694V54.764C19.3044 54.8293 19.6824 54.9507 20.0184 55.128C20.3637 55.3053 20.6344 55.5573 20.8304 55.884C21.0264 56.2107 21.1244 56.6353 21.1244 57.158C21.1244 58.0633 20.8117 58.7633 20.1864 59.258C19.5704 59.7527 18.7257 60 17.6524 60H14.1384V50.004ZM15.3984 54.26H17.2464C18.105 54.26 18.693 54.1247 19.0104 53.854C19.3277 53.574 19.4864 53.1633 19.4864 52.622C19.4864 52.0713 19.2904 51.6793 18.8984 51.446C18.5157 51.2033 17.8997 51.082 17.0504 51.082H15.3984V54.26ZM15.3984 55.31V58.936H17.4144C18.301 58.936 18.917 58.7633 19.2624 58.418C19.6077 58.0727 19.7804 57.62 19.7804 57.06C19.7804 56.5373 19.5984 56.1173 19.2344 55.8C18.8797 55.4733 18.2404 55.31 17.3164 55.31H15.3984ZM31.9658 54.988C31.9658 56.024 31.7885 56.9293 31.4338 57.704C31.0885 58.4693 30.5752 59.0667 29.8938 59.496C29.2125 59.9253 28.3678 60.14 27.3598 60.14C26.3238 60.14 25.4605 59.9253 24.7698 59.496C24.0885 59.0667 23.5798 58.4647 23.2438 57.69C22.9078 56.9153 22.7398 56.01 22.7398 54.974C22.7398 53.9473 22.9078 53.0513 23.2438 52.286C23.5798 51.5207 24.0885 50.9233 24.7698 50.494C25.4605 50.0647 26.3285 49.85 27.3738 49.85C28.3725 49.85 29.2125 50.0647 29.8938 50.494C30.5752 50.914 31.0885 51.5113 31.4338 52.286C31.7885 53.0513 31.9658 53.952 31.9658 54.988ZM24.0698 54.988C24.0698 56.248 24.3358 57.242 24.8678 57.97C25.3998 58.6887 26.2305 59.048 27.3598 59.048C28.4985 59.048 29.3292 58.6887 29.8518 57.97C30.3745 57.242 30.6358 56.248 30.6358 54.988C30.6358 53.728 30.3745 52.7433 29.8518 52.034C29.3292 51.3153 28.5032 50.956 27.3738 50.956C26.2445 50.956 25.4092 51.3153 24.8678 52.034C24.3358 52.7433 24.0698 53.728 24.0698 54.988ZM39.7673 60H34.1813V50.004H39.7673V51.11H35.4413V54.232H39.5153V55.324H35.4413V58.894H39.7673V60ZM48.0246 50.004C49.3313 50.004 50.2833 50.2607 50.8806 50.774C51.4779 51.2873 51.7766 52.0107 51.7766 52.944C51.7766 53.4947 51.6506 54.0127 51.3986 54.498C51.1559 54.974 50.7406 55.3613 50.1526 55.66C49.5739 55.9587 48.7853 56.108 47.7866 56.108H46.6386V60H45.3786V50.004H48.0246ZM47.9126 51.082H46.6386V55.03H47.6466C48.5986 55.03 49.3079 54.876 49.7746 54.568C50.2413 54.26 50.4746 53.7373 50.4746 53C50.4746 52.356 50.2693 51.8753 49.8586 51.558C49.4479 51.2407 48.7993 51.082 47.9126 51.082ZM61.2332 50.004L58.0412 57.158C57.7425 57.8207 57.4392 58.376 57.1312 58.824C56.8325 59.2627 56.4778 59.594 56.0672 59.818C55.6565 60.0327 55.1338 60.14 54.4992 60.14C54.2378 60.14 53.9905 60.1213 53.7572 60.084C53.5332 60.0467 53.3278 59.9953 53.1412 59.93V58.684C53.3278 58.768 53.5285 58.838 53.7432 58.894C53.9578 58.9407 54.1818 58.964 54.4152 58.964C54.9378 58.964 55.3485 58.852 55.6472 58.628C55.9552 58.404 56.2398 58.0073 56.5012 57.438L52.6512 50.004H54.0372L56.8232 55.506C56.8698 55.5993 56.9258 55.7207 56.9912 55.87C57.0565 56.01 57.1125 56.1453 57.1592 56.276H57.2152C57.2525 56.1733 57.2992 56.052 57.3552 55.912C57.4112 55.7627 57.4578 55.6413 57.4952 55.548L59.9032 50.004H61.2332ZM69.8855 60H68.3735L63.8515 54.932V60H62.5915V50.004H63.8515V54.848L68.2615 50.004H69.6895L65.3495 54.862L69.8855 60ZM79.6943 54.988C79.6943 56.024 79.517 56.9293 79.1623 57.704C78.817 58.4693 78.3037 59.0667 77.6223 59.496C76.941 59.9253 76.0963 60.14 75.0883 60.14C74.0523 60.14 73.189 59.9253 72.4983 59.496C71.817 59.0667 71.3083 58.4647 70.9723 57.69C70.6363 56.9153 70.4683 56.01 70.4683 54.974C70.4683 53.9473 70.6363 53.0513 70.9723 52.286C71.3083 51.5207 71.817 50.9233 72.4983 50.494C73.189 50.0647 74.057 49.85 75.1023 49.85C76.101 49.85 76.941 50.0647 77.6223 50.494C78.3037 50.914 78.817 51.5113 79.1623 52.286C79.517 53.0513 79.6943 53.952 79.6943 54.988ZM71.7983 54.988C71.7983 56.248 72.0643 57.242 72.5963 57.97C73.1283 58.6887 73.959 59.048 75.0883 59.048C76.227 59.048 77.0577 58.6887 77.5803 57.97C78.103 57.242 78.3643 56.248 78.3643 54.988C78.3643 53.728 78.103 52.7433 77.5803 52.034C77.0577 51.3153 76.2317 50.956 75.1023 50.956C73.973 50.956 73.1377 51.3153 72.5963 52.034C72.0643 52.7433 71.7983 53.728 71.7983 54.988ZM88.3704 50.004V58.88H89.6444V62.632H88.4404V60H81.5664V62.632H80.3624V58.88H81.1324C81.4684 58.3013 81.7857 57.6527 82.0844 56.934C82.3924 56.2153 82.6631 55.464 82.8964 54.68C83.1297 53.8867 83.3211 53.0933 83.4704 52.3C83.6197 51.5067 83.7131 50.7413 83.7504 50.004H88.3704ZM87.1244 51.138H84.8564C84.8191 51.6793 84.7257 52.2907 84.5764 52.972C84.4364 53.6533 84.2544 54.3533 84.0304 55.072C83.8157 55.7813 83.5731 56.4673 83.3024 57.13C83.0411 57.7927 82.7611 58.376 82.4624 58.88H87.1244V51.138ZM96.9021 60H91.3161V50.004H96.9021V51.11H92.5761V54.232H96.6501V55.324H92.5761V58.894H96.9021V60ZM106.291 60H105.031V51.11H101.867C101.783 51.8007 101.69 52.5287 101.587 53.294C101.485 54.05 101.382 54.7733 101.279 55.464C101.177 56.1547 101.074 56.7427 100.971 57.228C100.85 57.8533 100.701 58.3853 100.523 58.824C100.346 59.2627 100.108 59.594 99.8094 59.818C99.5201 60.042 99.1374 60.154 98.6614 60.154C98.5027 60.154 98.3394 60.1353 98.1714 60.098C98.0127 60.07 97.8727 60.0327 97.7514 59.986V58.936C97.8541 58.9827 97.9707 59.0247 98.1014 59.062C98.2321 59.09 98.3721 59.104 98.5214 59.104C98.8014 59.104 99.0207 58.992 99.1794 58.768C99.3474 58.5347 99.4781 58.25 99.5714 57.914C99.6647 57.5687 99.7441 57.228 99.8094 56.892C99.8841 56.5373 99.9727 56.0193 100.075 55.338C100.187 54.6473 100.304 53.8447 100.425 52.93C100.556 52.0153 100.687 51.04 100.817 50.004H106.291V60ZM109.022 50.004H110.198V55.492C110.198 55.8 110.193 56.1453 110.184 56.528C110.174 56.9107 110.16 57.2607 110.142 57.578C110.132 57.8953 110.118 58.1287 110.1 58.278H110.156L115.658 50.004H117.058V60H115.882V54.568C115.882 54.2227 115.886 53.854 115.896 53.462C115.914 53.07 115.933 52.7107 115.952 52.384C115.97 52.0573 115.984 51.824 115.994 51.684H115.938L110.422 60H109.022V50.004ZM125.34 60H119.754V50.004H125.34V51.11H121.014V54.232H125.088V55.324H121.014V58.894H125.34V60ZM130.965 50.004H132.141V55.492C132.141 55.8 132.136 56.1453 132.127 56.528C132.118 56.9107 132.104 57.2607 132.085 57.578C132.076 57.8953 132.062 58.1287 132.043 58.278H132.099L137.601 50.004H139.001V60H137.825V54.568C137.825 54.2227 137.83 53.854 137.839 53.462C137.858 53.07 137.876 52.7107 137.895 52.384C137.914 52.0573 137.928 51.824 137.937 51.684H137.881L132.365 60H130.965V50.004ZM148.279 60H147.019V51.11H143.897V50.004H151.387V51.11H148.279V60ZM152.894 50.004H155.75C157.001 50.004 157.944 50.1907 158.578 50.564C159.222 50.928 159.544 51.5673 159.544 52.482C159.544 53.07 159.381 53.56 159.054 53.952C158.728 54.3347 158.256 54.582 157.64 54.694V54.764C158.06 54.8293 158.438 54.9507 158.774 55.128C159.12 55.3053 159.39 55.5573 159.586 55.884C159.782 56.2107 159.88 56.6353 159.88 57.158C159.88 58.0633 159.568 58.7633 158.942 59.258C158.326 59.7527 157.482 60 156.408 60H152.894V50.004ZM154.154 54.26H156.002C156.861 54.26 157.449 54.1247 157.766 53.854C158.084 53.574 158.242 53.1633 158.242 52.622C158.242 52.0713 158.046 51.6793 157.654 51.446C157.272 51.2033 156.656 51.082 155.806 51.082H154.154V54.26ZM154.154 55.31V58.936H156.17C157.057 58.936 157.673 58.7633 158.018 58.418C158.364 58.0727 158.536 57.62 158.536 57.06C158.536 56.5373 158.354 56.1173 157.99 55.8C157.636 55.4733 156.996 55.31 156.072 55.31H154.154ZM170.722 54.988C170.722 56.024 170.544 56.9293 170.19 57.704C169.844 58.4693 169.331 59.0667 168.65 59.496C167.968 59.9253 167.124 60.14 166.116 60.14C165.08 60.14 164.216 59.9253 163.526 59.496C162.844 59.0667 162.336 58.4647 162 57.69C161.664 56.9153 161.496 56.01 161.496 54.974C161.496 53.9473 161.664 53.0513 162 52.286C162.336 51.5207 162.844 50.9233 163.526 50.494C164.216 50.0647 165.084 49.85 166.13 49.85C167.128 49.85 167.968 50.0647 168.65 50.494C169.331 50.914 169.844 51.5113 170.19 52.286C170.544 53.0513 170.722 53.952 170.722 54.988ZM162.826 54.988C162.826 56.248 163.092 57.242 163.624 57.97C164.156 58.6887 164.986 59.048 166.116 59.048C167.254 59.048 168.085 58.6887 168.608 57.97C169.13 57.242 169.392 56.248 169.392 54.988C169.392 53.728 169.13 52.7433 168.608 52.034C168.085 51.3153 167.259 50.956 166.13 50.956C165 50.956 164.165 51.3153 163.624 52.034C163.092 52.7433 162.826 53.728 162.826 54.988ZM175.583 50.004C176.89 50.004 177.842 50.2607 178.439 50.774C179.037 51.2873 179.335 52.0107 179.335 52.944C179.335 53.4947 179.209 54.0127 178.957 54.498C178.715 54.974 178.299 55.3613 177.711 55.66C177.133 55.9587 176.344 56.108 175.345 56.108H174.197V60H172.937V50.004H175.583ZM175.471 51.082H174.197V55.03H175.205C176.157 55.03 176.867 54.876 177.333 54.568C177.8 54.26 178.033 53.7373 178.033 53C178.033 52.356 177.828 51.8753 177.417 51.558C177.007 51.2407 176.358 51.082 175.471 51.082ZM188.47 60H187.21V55.898C186.668 56.0847 186.16 56.2387 185.684 56.36C185.217 56.472 184.694 56.528 184.116 56.528C183.182 56.528 182.459 56.3133 181.946 55.884C181.432 55.4453 181.176 54.8153 181.176 53.994V50.004H182.436V53.812C182.436 54.3533 182.576 54.7593 182.856 55.03C183.145 55.2913 183.607 55.422 184.242 55.422C184.792 55.422 185.287 55.3707 185.726 55.268C186.164 55.1653 186.659 55.0253 187.21 54.848V50.004H188.47V60ZM196.775 60H191.189V50.004H196.775V51.11H192.449V54.232H196.523V55.324H192.449V58.894H196.775V60ZM203.252 50.97C202.179 50.97 201.334 51.3293 200.718 52.048C200.102 52.7667 199.794 53.7513 199.794 55.002C199.794 56.2433 200.079 57.228 200.648 57.956C201.227 58.6747 202.09 59.034 203.238 59.034C203.677 59.034 204.092 58.9967 204.484 58.922C204.876 58.8473 205.259 58.754 205.632 58.642V59.734C205.259 59.874 204.872 59.9767 204.47 60.042C204.078 60.1073 203.607 60.14 203.056 60.14C202.039 60.14 201.19 59.93 200.508 59.51C199.827 59.09 199.314 58.4927 198.968 57.718C198.632 56.9433 198.464 56.0333 198.464 54.988C198.464 53.98 198.646 53.0933 199.01 52.328C199.384 51.5533 199.93 50.9513 200.648 50.522C201.367 50.0833 202.24 49.864 203.266 49.864C204.321 49.864 205.24 50.06 206.024 50.452L205.52 51.516C205.212 51.376 204.867 51.25 204.484 51.138C204.111 51.026 203.7 50.97 203.252 50.97ZM210.978 60H209.718V51.11H206.596V50.004H214.086V51.11H210.978V60ZM215.593 50.004H218.449C219.7 50.004 220.643 50.1907 221.277 50.564C221.921 50.928 222.243 51.5673 222.243 52.482C222.243 53.07 222.08 53.56 221.753 53.952C221.427 54.3347 220.955 54.582 220.339 54.694V54.764C220.759 54.8293 221.137 54.9507 221.473 55.128C221.819 55.3053 222.089 55.5573 222.285 55.884C222.481 56.2107 222.579 56.6353 222.579 57.158C222.579 58.0633 222.267 58.7633 221.641 59.258C221.025 59.7527 220.181 60 219.107 60H215.593V50.004ZM216.853 54.26H218.701C219.56 54.26 220.148 54.1247 220.465 53.854C220.783 53.574 220.941 53.1633 220.941 52.622C220.941 52.0713 220.745 51.6793 220.353 51.446C219.971 51.2033 219.355 51.082 218.505 51.082H216.853V54.26ZM216.853 55.31V58.936H218.869C219.756 58.936 220.372 58.7633 220.717 58.418C221.063 58.0727 221.235 57.62 221.235 57.06C221.235 56.5373 221.053 56.1173 220.689 55.8C220.335 55.4733 219.695 55.31 218.771 55.31H216.853ZM233.421 54.988C233.421 56.024 233.244 56.9293 232.889 57.704C232.544 58.4693 232.03 59.0667 231.349 59.496C230.668 59.9253 229.823 60.14 228.815 60.14C227.779 60.14 226.916 59.9253 226.225 59.496C225.544 59.0667 225.035 58.4647 224.699 57.69C224.363 56.9153 224.195 56.01 224.195 54.974C224.195 53.9473 224.363 53.0513 224.699 52.286C225.035 51.5207 225.544 50.9233 226.225 50.494C226.916 50.0647 227.784 49.85 228.829 49.85C229.828 49.85 230.668 50.0647 231.349 50.494C232.03 50.914 232.544 51.5113 232.889 52.286C233.244 53.0513 233.421 53.952 233.421 54.988ZM225.525 54.988C225.525 56.248 225.791 57.242 226.323 57.97C226.855 58.6887 227.686 59.048 228.815 59.048C229.954 59.048 230.784 58.6887 231.307 57.97C231.83 57.242 232.091 56.248 232.091 54.988C232.091 53.728 231.83 52.7433 231.307 52.034C230.784 51.3153 229.958 50.956 228.829 50.956C227.7 50.956 226.864 51.3153 226.323 52.034C225.791 52.7433 225.525 53.728 225.525 54.988Z" fill="white"/>
</svg>
