<svg viewBox="0 0 33 43" xmlns="http://www.w3.org/2000/svg">
  <line x1="3" y1="42" x2="30" y2="42" stroke="#FA7268" stroke-width="2"/>
  <path d="M2.87109 4.84863C2.87109 4.38607 3.03857 3.97135 3.37354 3.60449C3.72445 3.23763 4.11523 3.0542 4.5459 3.0542C5.80599 3.0542 6.44401 3.65234 6.45996 4.84863L6.62744 21.0942C6.64339 23.4709 6.97038 25.5604 7.6084 27.3628C8.24642 29.1652 9.2513 30.5688 10.623 31.5737C12.0107 32.5786 13.8211 33.0811 16.0542 33.0811C18.5265 33.0811 20.5044 32.5786 21.9878 31.5737C23.4712 30.5688 24.5479 29.1891 25.2178 27.4346C25.8877 25.68 26.2227 23.6862 26.2227 21.4531L26.1748 4.82471V4.80078C26.1748 4.30632 26.3423 3.88363 26.6772 3.53271C27.0282 3.1818 27.4508 3.00635 27.9453 3.00635C28.4398 3.00635 28.8625 3.1818 29.2134 3.53271C29.5802 3.88363 29.7637 4.30632 29.7637 4.80078V4.82471L29.8115 21.4292C29.8115 26.1825 28.679 29.9069 26.4141 32.6025C24.165 35.2982 20.7437 36.646 16.1499 36.646C13.215 36.646 10.7826 35.992 8.85254 34.6841C6.92253 33.3602 5.479 31.5339 4.52197 29.2051C3.56494 26.8604 3.07048 24.1647 3.03857 21.1182L2.87109 4.87256V4.84863Z"/>
</svg>
