<svg viewBox="0 0 240 65" xmlns="http://www.w3.org/2000/svg">
  <path d="M2.87109 4.84863C2.87109 4.38607 3.03857 3.97135 3.37354 3.60449C3.72445 3.23763 4.11523 3.0542 4.5459 3.0542C5.80599 3.0542 6.44401 3.65234 6.45996 4.84863L6.62744 21.0942C6.64339 23.4709 6.97038 25.5604 7.6084 27.3628C8.24642 29.1652 9.2513 30.5688 10.623 31.5737C12.0107 32.5786 13.8211 33.0811 16.0542 33.0811C18.5265 33.0811 20.5044 32.5786 21.9878 31.5737C23.4712 30.5688 24.5479 29.1891 25.2178 27.4346C25.8877 25.68 26.2227 23.6862 26.2227 21.4531L26.1748 4.82471V4.80078C26.1748 4.30632 26.3423 3.88363 26.6772 3.53271C27.0282 3.1818 27.4508 3.00635 27.9453 3.00635C28.4398 3.00635 28.8625 3.1818 29.2134 3.53271C29.5802 3.88363 29.7637 4.30632 29.7637 4.80078V4.82471L29.8115 21.4292C29.8115 26.1825 28.679 29.9069 26.4141 32.6025C24.165 35.2982 20.7437 36.646 16.1499 36.646C13.215 36.646 10.7826 35.992 8.85254 34.6841C6.92253 33.3602 5.479 31.5339 4.52197 29.2051C3.56494 26.8604 3.07048 24.1647 3.03857 21.1182L2.87109 4.87256V4.84863ZM33.8789 4.84863C33.8789 4.46582 34.0544 4.09896 34.4053 3.74805C34.7721 3.39714 35.1549 3.22168 35.5537 3.22168C36.431 3.22168 37.0212 3.58057 37.3242 4.29834L49.4785 30.3057L60.3887 4.03516C60.7077 3.26953 61.3058 2.88672 62.1831 2.88672C62.5978 2.88672 62.9806 3.06217 63.3315 3.41309C63.6825 3.74805 63.8579 4.11491 63.8579 4.51367C63.8579 4.88053 63.818 5.16764 63.7383 5.375L51.249 35.5693C51.1374 35.8405 50.922 36.0957 50.603 36.335C50.284 36.5902 49.9411 36.7178 49.5742 36.7178C48.8245 36.7178 48.2822 36.3589 47.9473 35.6411L34.0464 5.75781C33.9347 5.53451 33.8789 5.23145 33.8789 4.84863ZM67.9492 4.729C67.9492 4.23454 68.1247 3.81185 68.4756 3.46094C68.8265 3.11003 69.2492 2.93457 69.7437 2.93457L92.1621 2.9585H92.186C92.6805 2.9585 93.1032 3.13395 93.4541 3.48486C93.805 3.83577 93.9805 4.25846 93.9805 4.75293C93.9805 5.2474 93.805 5.67008 93.4541 6.021C93.1032 6.37191 92.6805 6.54736 92.186 6.54736H92.1621L71.5381 6.52344L71.562 17.7686C71.6099 17.7686 71.6497 17.7686 71.6816 17.7686C71.7295 17.7526 71.7694 17.7446 71.8013 17.7446L90.2002 17.8643C90.7106 17.8643 91.1333 18.0397 91.4683 18.3906C91.8192 18.7256 91.9946 19.1882 91.9946 19.7783C91.9946 20.2249 91.8112 20.6157 91.4443 20.9507C91.0775 21.2856 90.6628 21.4531 90.2002 21.4531H90.1763L71.7773 21.3335H71.5859L71.6099 32.459L92.1621 32.4351H92.186C92.6805 32.4351 93.1032 32.6105 93.4541 32.9614C93.805 33.3123 93.9805 33.735 93.9805 34.2295C93.9805 34.724 93.805 35.1466 93.4541 35.4976C93.1032 35.8485 92.6805 36.0239 92.186 36.0239H92.1621L69.8154 36.0479C69.321 36.0479 68.8983 35.8724 68.5474 35.5215C68.1965 35.1706 68.021 34.7479 68.021 34.2534L67.9492 4.729ZM97.5693 4.729C97.5693 4.21859 97.7448 3.77995 98.0957 3.41309C98.4626 3.04622 98.8932 2.86279 99.3877 2.86279H123.337C123.832 2.86279 124.255 3.03027 124.605 3.36523C124.956 3.68424 125.132 4.09098 125.132 4.58545C125.132 5.07992 124.956 5.51855 124.605 5.90137C124.255 6.26823 123.824 6.45166 123.313 6.45166H113.121V34.6123C113.121 35.1068 112.938 35.5295 112.571 35.8804C112.204 36.2313 111.773 36.4067 111.279 36.4067C110.784 36.4067 110.37 36.2313 110.035 35.8804C109.7 35.5295 109.532 35.1068 109.532 34.6123V6.45166H99.3638C98.8693 6.45166 98.4466 6.29215 98.0957 5.97314C97.7448 5.63818 97.5693 5.22347 97.5693 4.729ZM144.655 2.83887C147 2.83887 149.145 3.26953 151.091 4.13086C153.053 4.99219 154.744 6.19645 156.164 7.74365C157.583 9.29085 158.676 11.0933 159.441 13.1509C160.223 15.1925 160.614 17.4017 160.614 19.7783C160.614 22.9525 159.944 25.8076 158.604 28.3438C157.264 30.8639 155.398 32.8577 153.005 34.3252C150.613 35.7926 147.829 36.5264 144.655 36.5264C141.433 36.5264 138.626 35.8006 136.233 34.3491C133.841 32.8817 131.991 30.8879 130.683 28.3677C129.375 25.8475 128.721 22.9844 128.721 19.7783C128.721 17.4495 129.111 15.2643 129.893 13.2227C130.675 11.165 131.775 9.36263 133.195 7.81543C134.63 6.25228 136.321 5.03206 138.267 4.15479C140.213 3.27751 142.342 2.83887 144.655 2.83887ZM144.655 6.49951C142.167 6.49951 139.998 7.08171 138.147 8.24609C136.297 9.39453 134.862 10.9736 133.841 12.9834C132.82 14.9772 132.31 17.2422 132.31 19.7783C132.31 21.5329 132.621 23.1997 133.243 24.7788C133.881 26.342 134.758 27.7376 135.875 28.9658C137.007 30.1781 138.315 31.1351 139.798 31.8369C141.298 32.5387 142.917 32.8896 144.655 32.8896C146.378 32.8896 147.989 32.5228 149.488 31.7891C151.004 31.0553 152.327 30.0664 153.46 28.8223C154.608 27.5781 155.502 26.1745 156.14 24.6113C156.778 23.0482 157.097 21.4372 157.097 19.7783C157.097 17.1465 156.546 14.8337 155.446 12.8398C154.361 10.846 152.878 9.29085 150.996 8.17432C149.129 7.05778 147.016 6.49951 144.655 6.49951ZM202.125 34.8755C202.125 35.3381 201.95 35.7368 201.599 36.0718C201.264 36.4067 200.921 36.5742 200.57 36.5742C200.251 36.5742 199.956 36.4945 199.685 36.335C199.413 36.1914 199.214 36.0798 199.086 36C197.683 34.9951 196.455 33.8228 195.402 32.4829C194.365 31.1431 193.488 29.6995 192.77 28.1523C192.1 26.6849 191.39 25.5285 190.641 24.6831C189.907 23.8218 189.022 23.2077 187.985 22.8408C186.948 22.458 185.632 22.2586 184.037 22.2427L181.262 22.2188L181.286 34.4927V34.5405C181.286 35.019 181.102 35.4417 180.735 35.8086C180.384 36.1595 179.97 36.335 179.491 36.335C178.997 36.335 178.574 36.1595 178.223 35.8086C177.872 35.4417 177.697 35.0111 177.697 34.5166L177.625 4.60938C177.625 4.09896 177.8 3.67627 178.151 3.34131C178.502 3.00635 178.917 2.83089 179.396 2.81494L185.76 2.79102H186.31C189.006 2.79102 191.382 3.14193 193.44 3.84375C195.498 4.54557 197.109 5.63021 198.273 7.09766C199.437 8.54915 200.02 10.4154 200.02 12.6963C200.02 14.2913 199.685 15.695 199.015 16.9072C198.345 18.1035 197.467 19.1084 196.383 19.9219C195.298 20.7354 194.126 21.3415 192.866 21.7402C193.583 22.458 194.293 23.4948 194.995 24.8506C195.92 26.6211 196.837 28.2161 197.747 29.6357C198.656 31.0553 199.86 32.3075 201.359 33.3921C201.87 33.759 202.125 34.2534 202.125 34.8755ZM186.43 6.37988H181.214L181.262 18.9888C181.341 18.9728 181.445 18.9648 181.573 18.9648L186.478 18.917C189.412 18.8851 191.813 18.3906 193.679 17.4336C195.545 16.4606 196.479 14.8416 196.479 12.5767C196.479 11.0135 196.024 9.78532 195.115 8.89209C194.206 7.98291 192.985 7.33691 191.454 6.9541C189.939 6.57129 188.264 6.37988 186.43 6.37988ZM206.91 4.84863C206.91 4.38607 207.078 3.97135 207.413 3.60449C207.764 3.23763 208.154 3.0542 208.585 3.0542C209.845 3.0542 210.483 3.65234 210.499 4.84863L210.667 21.0942C210.682 23.4709 211.009 25.5604 211.647 27.3628C212.285 29.1652 213.29 30.5688 214.662 31.5737C216.05 32.5786 217.86 33.0811 220.093 33.0811C222.566 33.0811 224.543 32.5786 226.027 31.5737C227.51 30.5688 228.587 29.1891 229.257 27.4346C229.927 25.68 230.262 23.6862 230.262 21.4531L230.214 4.82471V4.80078C230.214 4.30632 230.381 3.88363 230.716 3.53271C231.067 3.1818 231.49 3.00635 231.984 3.00635C232.479 3.00635 232.902 3.1818 233.252 3.53271C233.619 3.88363 233.803 4.30632 233.803 4.80078V4.82471L233.851 21.4292C233.851 26.1825 232.718 29.9069 230.453 32.6025C228.204 35.2982 224.783 36.646 220.189 36.646C217.254 36.646 214.822 35.992 212.892 34.6841C210.962 33.3602 209.518 31.5339 208.561 29.2051C207.604 26.8604 207.11 24.1647 207.078 21.1182L206.91 4.87256V4.84863Z" fill="#515151"/>
  <path d="M168.868 36.0957C167.943 36.0957 167.138 35.7687 166.452 35.1147C165.766 34.4608 165.423 33.6712 165.423 32.7461C165.423 31.821 165.766 31.0394 166.452 30.4014C167.138 29.7474 167.943 29.4204 168.868 29.4204C169.809 29.4204 170.623 29.7474 171.309 30.4014C171.994 31.0394 172.337 31.821 172.337 32.7461C172.337 33.6712 171.994 34.4608 171.309 35.1147C170.623 35.7687 169.809 36.0957 168.868 36.0957Z" fill="#FA7268"/>
  <line x1="-0.00106812" y1="45" x2="239.999" y2="45" stroke="#FA7268"/>
  <path d="M9.522 60H8.262V51.11H5.14V50.004H12.63V51.11H9.522V60ZM14.1373 50.004H16.9933C18.244 50.004 19.1866 50.1907 19.8213 50.564C20.4653 50.928 20.7873 51.5673 20.7873 52.482C20.7873 53.07 20.624 53.56 20.2973 53.952C19.9706 54.3347 19.4993 54.582 18.8833 54.694V54.764C19.3033 54.8293 19.6813 54.9507 20.0173 55.128C20.3626 55.3053 20.6333 55.5573 20.8293 55.884C21.0253 56.2107 21.1233 56.6353 21.1233 57.158C21.1233 58.0633 20.8106 58.7633 20.1853 59.258C19.5693 59.7527 18.7246 60 17.6513 60H14.1373V50.004ZM15.3973 54.26H17.2453C18.104 54.26 18.692 54.1247 19.0093 53.854C19.3266 53.574 19.4853 53.1633 19.4853 52.622C19.4853 52.0713 19.2893 51.6793 18.8973 51.446C18.5146 51.2033 17.8986 51.082 17.0493 51.082H15.3973V54.26ZM15.3973 55.31V58.936H17.4133C18.3 58.936 18.916 58.7633 19.2613 58.418C19.6066 58.0727 19.7793 57.62 19.7793 57.06C19.7793 56.5373 19.5973 56.1173 19.2333 55.8C18.8786 55.4733 18.2393 55.31 17.3153 55.31H15.3973ZM31.9648 54.988C31.9648 56.024 31.7874 56.9293 31.4328 57.704C31.0874 58.4693 30.5741 59.0667 29.8928 59.496C29.2114 59.9253 28.3668 60.14 27.3588 60.14C26.3228 60.14 25.4594 59.9253 24.7688 59.496C24.0874 59.0667 23.5788 58.4647 23.2428 57.69C22.9068 56.9153 22.7388 56.01 22.7388 54.974C22.7388 53.9473 22.9068 53.0513 23.2428 52.286C23.5788 51.5207 24.0874 50.9233 24.7688 50.494C25.4594 50.0647 26.3274 49.85 27.3728 49.85C28.3714 49.85 29.2114 50.0647 29.8928 50.494C30.5741 50.914 31.0874 51.5113 31.4328 52.286C31.7874 53.0513 31.9648 53.952 31.9648 54.988ZM24.0688 54.988C24.0688 56.248 24.3348 57.242 24.8668 57.97C25.3988 58.6887 26.2294 59.048 27.3588 59.048C28.4974 59.048 29.3281 58.6887 29.8508 57.97C30.3734 57.242 30.6348 56.248 30.6348 54.988C30.6348 53.728 30.3734 52.7433 29.8508 52.034C29.3281 51.3153 28.5021 50.956 27.3728 50.956C26.2434 50.956 25.4081 51.3153 24.8668 52.034C24.3348 52.7433 24.0688 53.728 24.0688 54.988ZM39.7663 60H34.1803V50.004H39.7663V51.11H35.4403V54.232H39.5143V55.324H35.4403V58.894H39.7663V60ZM48.0235 50.004C49.3302 50.004 50.2822 50.2607 50.8795 50.774C51.4769 51.2873 51.7755 52.0107 51.7755 52.944C51.7755 53.4947 51.6495 54.0127 51.3975 54.498C51.1549 54.974 50.7395 55.3613 50.1515 55.66C49.5729 55.9587 48.7842 56.108 47.7855 56.108H46.6375V60H45.3775V50.004H48.0235ZM47.9115 51.082H46.6375V55.03H47.6455C48.5975 55.03 49.3069 54.876 49.7735 54.568C50.2402 54.26 50.4735 53.7373 50.4735 53C50.4735 52.356 50.2682 51.8753 49.8575 51.558C49.4469 51.2407 48.7982 51.082 47.9115 51.082ZM61.2321 50.004L58.0401 57.158C57.7414 57.8207 57.4381 58.376 57.1301 58.824C56.8314 59.2627 56.4768 59.594 56.0661 59.818C55.6554 60.0327 55.1328 60.14 54.4981 60.14C54.2368 60.14 53.9894 60.1213 53.7561 60.084C53.5321 60.0467 53.3268 59.9953 53.1401 59.93V58.684C53.3268 58.768 53.5274 58.838 53.7421 58.894C53.9568 58.9407 54.1808 58.964 54.4141 58.964C54.9368 58.964 55.3474 58.852 55.6461 58.628C55.9541 58.404 56.2388 58.0073 56.5001 57.438L52.6501 50.004H54.0361L56.8221 55.506C56.8688 55.5993 56.9248 55.7207 56.9901 55.87C57.0554 56.01 57.1114 56.1453 57.1581 56.276H57.2141C57.2514 56.1733 57.2981 56.052 57.3541 55.912C57.4101 55.7627 57.4568 55.6413 57.4941 55.548L59.9021 50.004H61.2321ZM69.8844 60H68.3724L63.8504 54.932V60H62.5904V50.004H63.8504V54.848L68.2604 50.004H69.6884L65.3484 54.862L69.8844 60ZM79.6933 54.988C79.6933 56.024 79.5159 56.9293 79.1613 57.704C78.8159 58.4693 78.3026 59.0667 77.6213 59.496C76.9399 59.9253 76.0953 60.14 75.0873 60.14C74.0513 60.14 73.1879 59.9253 72.4973 59.496C71.8159 59.0667 71.3073 58.4647 70.9713 57.69C70.6353 56.9153 70.4673 56.01 70.4673 54.974C70.4673 53.9473 70.6353 53.0513 70.9713 52.286C71.3073 51.5207 71.8159 50.9233 72.4973 50.494C73.1879 50.0647 74.0559 49.85 75.1013 49.85C76.0999 49.85 76.9399 50.0647 77.6213 50.494C78.3026 50.914 78.8159 51.5113 79.1613 52.286C79.5159 53.0513 79.6933 53.952 79.6933 54.988ZM71.7973 54.988C71.7973 56.248 72.0633 57.242 72.5953 57.97C73.1273 58.6887 73.9579 59.048 75.0873 59.048C76.2259 59.048 77.0566 58.6887 77.5793 57.97C78.1019 57.242 78.3633 56.248 78.3633 54.988C78.3633 53.728 78.1019 52.7433 77.5793 52.034C77.0566 51.3153 76.2306 50.956 75.1013 50.956C73.9719 50.956 73.1366 51.3153 72.5953 52.034C72.0633 52.7433 71.7973 53.728 71.7973 54.988ZM88.3693 50.004V58.88H89.6433V62.632H88.4393V60H81.5653V62.632H80.3613V58.88H81.1313C81.4673 58.3013 81.7847 57.6527 82.0833 56.934C82.3913 56.2153 82.662 55.464 82.8953 54.68C83.1287 53.8867 83.32 53.0933 83.4693 52.3C83.6187 51.5067 83.712 50.7413 83.7493 50.004H88.3693ZM87.1233 51.138H84.8553C84.818 51.6793 84.7247 52.2907 84.5753 52.972C84.4353 53.6533 84.2533 54.3533 84.0293 55.072C83.8147 55.7813 83.572 56.4673 83.3013 57.13C83.04 57.7927 82.76 58.376 82.4613 58.88H87.1233V51.138ZM96.901 60H91.315V50.004H96.901V51.11H92.575V54.232H96.649V55.324H92.575V58.894H96.901V60ZM106.29 60H105.03V51.11H101.866C101.782 51.8007 101.689 52.5287 101.586 53.294C101.484 54.05 101.381 54.7733 101.278 55.464C101.176 56.1547 101.073 56.7427 100.97 57.228C100.849 57.8533 100.7 58.3853 100.522 58.824C100.345 59.2627 100.107 59.594 99.8083 59.818C99.519 60.042 99.1363 60.154 98.6603 60.154C98.5017 60.154 98.3383 60.1353 98.1703 60.098C98.0117 60.07 97.8717 60.0327 97.7503 59.986V58.936C97.853 58.9827 97.9697 59.0247 98.1003 59.062C98.231 59.09 98.371 59.104 98.5203 59.104C98.8003 59.104 99.0197 58.992 99.1783 58.768C99.3463 58.5347 99.477 58.25 99.5703 57.914C99.6637 57.5687 99.743 57.228 99.8083 56.892C99.883 56.5373 99.9717 56.0193 100.074 55.338C100.186 54.6473 100.303 53.8447 100.424 52.93C100.555 52.0153 100.686 51.04 100.816 50.004H106.29V60ZM109.02 50.004H110.196V55.492C110.196 55.8 110.192 56.1453 110.182 56.528C110.173 56.9107 110.159 57.2607 110.14 57.578C110.131 57.8953 110.117 58.1287 110.098 58.278H110.154L115.656 50.004H117.056V60H115.88V54.568C115.88 54.2227 115.885 53.854 115.894 53.462C115.913 53.07 115.932 52.7107 115.95 52.384C115.969 52.0573 115.983 51.824 115.992 51.684H115.936L110.42 60H109.02V50.004ZM125.339 60H119.753V50.004H125.339V51.11H121.013V54.232H125.087V55.324H121.013V58.894H125.339V60ZM130.964 50.004H132.14V55.492C132.14 55.8 132.135 56.1453 132.126 56.528C132.116 56.9107 132.102 57.2607 132.084 57.578C132.074 57.8953 132.06 58.1287 132.042 58.278H132.098L137.6 50.004H139V60H137.824V54.568C137.824 54.2227 137.828 53.854 137.838 53.462C137.856 53.07 137.875 52.7107 137.894 52.384C137.912 52.0573 137.926 51.824 137.936 51.684H137.88L132.364 60H130.964V50.004ZM148.278 60H147.018V51.11H143.896V50.004H151.386V51.11H148.278V60ZM152.893 50.004H155.749C157 50.004 157.942 50.1907 158.577 50.564C159.221 50.928 159.543 51.5673 159.543 52.482C159.543 53.07 159.38 53.56 159.053 53.952C158.726 54.3347 158.255 54.582 157.639 54.694V54.764C158.059 54.8293 158.437 54.9507 158.773 55.128C159.118 55.3053 159.389 55.5573 159.585 55.884C159.781 56.2107 159.879 56.6353 159.879 57.158C159.879 58.0633 159.566 58.7633 158.941 59.258C158.325 59.7527 157.48 60 156.407 60H152.893V50.004ZM154.153 54.26H156.001C156.86 54.26 157.448 54.1247 157.765 53.854C158.082 53.574 158.241 53.1633 158.241 52.622C158.241 52.0713 158.045 51.6793 157.653 51.446C157.27 51.2033 156.654 51.082 155.805 51.082H154.153V54.26ZM154.153 55.31V58.936H156.169C157.056 58.936 157.672 58.7633 158.017 58.418C158.362 58.0727 158.535 57.62 158.535 57.06C158.535 56.5373 158.353 56.1173 157.989 55.8C157.634 55.4733 156.995 55.31 156.071 55.31H154.153ZM170.721 54.988C170.721 56.024 170.543 56.9293 170.189 57.704C169.843 58.4693 169.33 59.0667 168.649 59.496C167.967 59.9253 167.123 60.14 166.115 60.14C165.079 60.14 164.215 59.9253 163.525 59.496C162.843 59.0667 162.335 58.4647 161.999 57.69C161.663 56.9153 161.495 56.01 161.495 54.974C161.495 53.9473 161.663 53.0513 161.999 52.286C162.335 51.5207 162.843 50.9233 163.525 50.494C164.215 50.0647 165.083 49.85 166.129 49.85C167.127 49.85 167.967 50.0647 168.649 50.494C169.33 50.914 169.843 51.5113 170.189 52.286C170.543 53.0513 170.721 53.952 170.721 54.988ZM162.825 54.988C162.825 56.248 163.091 57.242 163.623 57.97C164.155 58.6887 164.985 59.048 166.115 59.048C167.253 59.048 168.084 58.6887 168.607 57.97C169.129 57.242 169.391 56.248 169.391 54.988C169.391 53.728 169.129 52.7433 168.607 52.034C168.084 51.3153 167.258 50.956 166.129 50.956C164.999 50.956 164.164 51.3153 163.623 52.034C163.091 52.7433 162.825 53.728 162.825 54.988ZM175.582 50.004C176.889 50.004 177.841 50.2607 178.438 50.774C179.035 51.2873 179.334 52.0107 179.334 52.944C179.334 53.4947 179.208 54.0127 178.956 54.498C178.713 54.974 178.298 55.3613 177.71 55.66C177.131 55.9587 176.343 56.108 175.344 56.108H174.196V60H172.936V50.004H175.582ZM175.47 51.082H174.196V55.03H175.204C176.156 55.03 176.865 54.876 177.332 54.568C177.799 54.26 178.032 53.7373 178.032 53C178.032 52.356 177.827 51.8753 177.416 51.558C177.005 51.2407 176.357 51.082 175.47 51.082ZM188.469 60H187.209V55.898C186.667 56.0847 186.159 56.2387 185.683 56.36C185.216 56.472 184.693 56.528 184.115 56.528C183.181 56.528 182.458 56.3133 181.945 55.884C181.431 55.4453 181.175 54.8153 181.175 53.994V50.004H182.435V53.812C182.435 54.3533 182.575 54.7593 182.855 55.03C183.144 55.2913 183.606 55.422 184.241 55.422C184.791 55.422 185.286 55.3707 185.725 55.268C186.163 55.1653 186.658 55.0253 187.209 54.848V50.004H188.469V60ZM196.774 60H191.188V50.004H196.774V51.11H192.448V54.232H196.522V55.324H192.448V58.894H196.774V60ZM203.251 50.97C202.178 50.97 201.333 51.3293 200.717 52.048C200.101 52.7667 199.793 53.7513 199.793 55.002C199.793 56.2433 200.078 57.228 200.647 57.956C201.226 58.6747 202.089 59.034 203.237 59.034C203.676 59.034 204.091 58.9967 204.483 58.922C204.875 58.8473 205.258 58.754 205.631 58.642V59.734C205.258 59.874 204.871 59.9767 204.469 60.042C204.077 60.1073 203.606 60.14 203.055 60.14C202.038 60.14 201.189 59.93 200.507 59.51C199.826 59.09 199.313 58.4927 198.967 57.718C198.631 56.9433 198.463 56.0333 198.463 54.988C198.463 53.98 198.645 53.0933 199.009 52.328C199.383 51.5533 199.929 50.9513 200.647 50.522C201.366 50.0833 202.239 49.864 203.265 49.864C204.32 49.864 205.239 50.06 206.023 50.452L205.519 51.516C205.211 51.376 204.866 51.25 204.483 51.138C204.11 51.026 203.699 50.97 203.251 50.97ZM210.977 60H209.717V51.11H206.595V50.004H214.085V51.11H210.977V60ZM215.592 50.004H218.448C219.699 50.004 220.642 50.1907 221.276 50.564C221.92 50.928 222.242 51.5673 222.242 52.482C222.242 53.07 222.079 53.56 221.752 53.952C221.426 54.3347 220.954 54.582 220.338 54.694V54.764C220.758 54.8293 221.136 54.9507 221.472 55.128C221.818 55.3053 222.088 55.5573 222.284 55.884C222.48 56.2107 222.578 56.6353 222.578 57.158C222.578 58.0633 222.266 58.7633 221.64 59.258C221.024 59.7527 220.18 60 219.106 60H215.592V50.004ZM216.852 54.26H218.7C219.559 54.26 220.147 54.1247 220.464 53.854C220.782 53.574 220.94 53.1633 220.94 52.622C220.94 52.0713 220.744 51.6793 220.352 51.446C219.97 51.2033 219.354 51.082 218.504 51.082H216.852V54.26ZM216.852 55.31V58.936H218.868C219.755 58.936 220.371 58.7633 220.716 58.418C221.062 58.0727 221.234 57.62 221.234 57.06C221.234 56.5373 221.052 56.1173 220.688 55.8C220.334 55.4733 219.694 55.31 218.77 55.31H216.852ZM233.42 54.988C233.42 56.024 233.243 56.9293 232.888 57.704C232.543 58.4693 232.029 59.0667 231.348 59.496C230.667 59.9253 229.822 60.14 228.814 60.14C227.778 60.14 226.915 59.9253 226.224 59.496C225.543 59.0667 225.034 58.4647 224.698 57.69C224.362 56.9153 224.194 56.01 224.194 54.974C224.194 53.9473 224.362 53.0513 224.698 52.286C225.034 51.5207 225.543 50.9233 226.224 50.494C226.915 50.0647 227.783 49.85 228.828 49.85C229.827 49.85 230.667 50.0647 231.348 50.494C232.029 50.914 232.543 51.5113 232.888 52.286C233.243 53.0513 233.42 53.952 233.42 54.988ZM225.524 54.988C225.524 56.248 225.79 57.242 226.322 57.97C226.854 58.6887 227.685 59.048 228.814 59.048C229.953 59.048 230.783 58.6887 231.306 57.97C231.829 57.242 232.09 56.248 232.09 54.988C232.09 53.728 231.829 52.7433 231.306 52.034C230.783 51.3153 229.957 50.956 228.828 50.956C227.699 50.956 226.863 51.3153 226.322 52.034C225.79 52.7433 225.524 53.728 225.524 54.988Z" fill="#515151"/>
</svg>

