<svg viewBox="0 0 32 20" xmlns="http://www.w3.org/2000/svg">
  <path d="M19.9067 3.48462H11.9297V16.5134H19.9067V3.48462Z"/>
  <path d="M12.7514 9.99982C12.7504 8.74526 13.0348 7.50692 13.583 6.3785C14.1313 5.25009 14.929 4.26117 15.9159 3.48658C14.6936 2.52599 13.2257 1.92865 11.68 1.76284C10.1343 1.59703 8.5731 1.86944 7.17487 2.54893C5.77664 3.22843 4.59779 4.28759 3.77304 5.60537C2.94829 6.92315 2.51093 8.44638 2.51093 10.001C2.51093 11.5556 2.94829 13.0788 3.77304 14.3966C4.59779 15.7143 5.77664 16.7735 7.17487 17.453C8.5731 18.1325 10.1343 18.4049 11.68 18.2391C13.2257 18.0733 14.6936 17.4759 15.9159 16.5154C14.9287 15.7405 14.1308 14.7512 13.5825 13.6224C13.0343 12.4936 12.75 11.2548 12.7514 9.99982Z"/>
  <path d="M28.5304 15.1345V14.8675H28.6455V14.8123H28.3716V14.8675H28.4798V15.1345H28.5304ZM29.0621 15.1345V14.8123H28.9792L28.8826 15.0424L28.7859 14.8123H28.7031V15.1345H28.7629V14.8905L28.8527 15.0999H28.9148L29.0046 14.8905V15.1345H29.0621Z"/>
  <path d="M29.3222 9.9999C29.3221 11.5546 28.8847 13.0779 28.0598 14.3958C27.2349 15.7136 26.0558 16.7727 24.6574 17.4521C23.259 18.1315 21.6977 18.4038 20.1519 18.2377C18.6061 18.0717 17.1382 17.474 15.916 16.5131C16.9024 15.7379 17.7 14.7487 18.2484 13.6202C18.7968 12.4917 19.0817 11.2534 19.0817 9.99875C19.0817 8.74408 18.7968 7.50579 18.2484 6.37731C17.7 5.24883 16.9024 4.25964 15.916 3.48437C17.1382 2.52347 18.6061 1.92584 20.1519 1.7598C21.6977 1.59375 23.259 1.86598 24.6574 2.54538C26.0558 3.22478 27.2349 4.28392 28.0598 5.60174C28.8847 6.91957 29.3221 8.44289 29.3222 9.9976V9.9999Z"/>
</svg>
