<svg viewBox="0 0 71 20" xmlns="http://www.w3.org/2000/svg">
  <g clip-path="url(#clip0)">
    <path fill-rule="evenodd" clip-rule="evenodd" d="M62.1796 0H48.8939C49.6082 4.42857 53.8939 8.57143 58.6082 8.57143H69.1796C69.3225 8.14286 69.3225 7.57143 69.3225 7.14286C69.3225 3.14286 66.1796 0 62.1796 0Z"/>
    <path fill-rule="evenodd" clip-rule="evenodd" d="M50.0367 9.28564V19.9999H56.4653V14.2856H62.1796C65.3225 14.2856 68.0367 12.1428 68.8939 9.28564H50.0367Z"/>
    <path fill-rule="evenodd" clip-rule="evenodd" d="M27.1796 0V20H32.8939C32.8939 20 34.3225 20 35.0368 18.5714C38.8939 10.8571 40.0368 8.57143 40.0368 8.57143H40.7511V20H47.1796V0H41.4653C41.4653 0 40.0368 0.142857 39.3225 1.42857C36.0368 8 34.3225 11.4286 34.3225 11.4286H33.6082V0H27.1796Z"/>
    <path fill-rule="evenodd" clip-rule="evenodd" d="M0.0367432 20V0H6.46531C6.46531 0 8.32246 0 9.32246 2.85714C11.8939 10.4286 12.1796 11.4286 12.1796 11.4286C12.1796 11.4286 12.751 9.57143 15.0367 2.85714C16.0367 0 17.8939 0 17.8939 0H24.3225V20H17.8939V9.28571H17.1796L13.6082 20H10.751L7.1796 9.28571H6.46531V20H0.0367432Z"/>
  </g>
  <defs>
    <clipPath id="clip0">
    <rect width="70" height="20" fill="white" transform="translate(0.0367432)"/>
    </clipPath>
  </defs>
</svg>
