<svg viewBox="0 0 8 10" xmlns="http://www.w3.org/2000/svg">
  <path d="M6.77795 2.22684C6.65129 1.89297 6.46677 1.69489 6.27131 1.50799C6.07584 1.32109 5.72869 1.14058 5.44097 1.07827C5.23299 1.02396 4.92807 1 4.53714 1H1.49726V4.70607H1V5.53674H1.49726V5.8738H1V6.70447H1.49726V9H2.36826V6.70447H5.48945V5.8738H2.36826V5.53674H2.42299H4.60594C5.44566 5.53674 6.04769 5.29712 6.42299 4.83067C6.78108 4.38498 7 3.99521 7 3.3115C7 2.91534 6.8921 2.55112 6.77639 2.22524L6.77795 2.22684ZM5.63331 4.32588C5.41439 4.58147 5.1251 4.70607 4.61845 4.70607H2.42455H2.36982V1.85144H4.60125C4.95778 1.85144 5.20485 1.8754 5.33151 1.92173C5.54105 2.05751 5.70524 2.16294 5.82721 2.39457C5.95387 2.63578 6.01642 2.92173 6.01642 3.2476C6.01642 3.71246 5.83972 4.07828 5.63174 4.32588H5.63331Z"/>
</svg>
