<svg viewBox="0 0 24 24" xmlns="http://www.w3.org/2000/svg">
  <g clip-path="url(#clip0)">
    <path d="M23.2032 21.8531L17.6814 16.3312C19.0501 14.6625 19.8751 12.525 19.8751 10.1953C19.8751 4.85156 15.5392 0.515625 10.1954 0.515625C4.847 0.515625 0.515747 4.85156 0.515747 10.1953C0.515747 15.5391 4.847 19.875 10.1954 19.875C12.5251 19.875 14.6579 19.0547 16.3267 17.6859L21.8486 23.2031C22.2236 23.5781 22.8282 23.5781 23.2032 23.2031C23.5782 22.8328 23.5782 22.2234 23.2032 21.8531ZM10.1954 17.9484C5.91575 17.9484 2.43762 14.4703 2.43762 10.1953C2.43762 5.92031 5.91575 2.4375 10.1954 2.4375C14.4704 2.4375 17.9532 5.92031 17.9532 10.1953C17.9532 14.4703 14.4704 17.9484 10.1954 17.9484Z"/>
  </g>
  <defs>
    <clipPath id="clip0">
      <rect width="24" height="24" fill="white" transform="translate(0.00012207)"/>
    </clipPath>
  </defs>
</svg>
