<svg viewBox="62 20" xmlns="http://www.w3.org/2000/svg">
  <g clip-path="url(#clip0)">
    <path d="M26.7788 19.7116H21.7728L24.9039 0.351074H29.9097L26.7788 19.7116Z"/>
    <path d="M44.9261 0.824254C43.9387 0.432522 42.3726 0 40.4361 0C35.4925 0 32.0112 2.63619 31.9899 6.40515C31.9488 9.18587 34.4824 10.7304 36.3772 11.6575C38.314 12.605 38.9724 13.2234 38.9724 14.0679C38.9527 15.3649 37.4074 15.9628 35.9661 15.9628C33.9674 15.9628 32.8965 15.6545 31.2691 14.9329L30.6099 14.6236L29.9094 18.9696C31.0835 19.5045 33.2467 19.9792 35.4925 20C40.7452 20 44.1648 17.4046 44.2053 13.3882C44.2253 11.1842 42.8875 9.49548 40.0033 8.11552C38.2524 7.22967 37.1801 6.63236 37.1801 5.72598C37.2007 4.902 38.0871 4.05803 40.0635 4.05803C41.691 4.0167 42.8867 4.40788 43.7925 4.79934L44.2453 5.00493L44.9261 0.824254Z"/>
    <path d="M51.5796 12.8528C51.9918 11.7406 53.5782 7.43593 53.5782 7.43593C53.5574 7.47727 53.9896 6.30317 54.2368 5.58239L54.5867 7.25061C54.5867 7.25061 55.5347 11.8849 55.7405 12.8528C54.9581 12.8528 52.5683 12.8528 51.5796 12.8528ZM57.7589 0.351074H53.8867C52.6926 0.351074 51.7854 0.700923 51.2702 1.95742L43.8344 19.7113H49.0871C49.0871 19.7113 49.9519 17.3218 50.1377 16.8071C50.714 16.8071 55.8237 16.8071 56.565 16.8071C56.7088 17.4868 57.1624 19.7113 57.1624 19.7113H61.7975L57.7589 0.351074Z"/>
    <path d="M17.5916 0.351074L12.689 13.5531L12.1533 10.8756C11.2469 7.78606 8.40434 4.42937 5.23215 2.76033L9.72271 19.6911H15.0164L22.885 0.351074H17.5916Z"/>
    <path d="M8.1366 0.351074H0.0823977L0 0.742259C6.28278 2.34888 10.4437 6.22159 12.1533 10.8764L10.4024 1.9785C10.1142 0.741985 9.22831 0.391863 8.1366 0.351074Z"/>
  </g>
  <defs>
    <clipPath id="clip0">
    <rect width="61.7974" height="20"/>
    </clipPath>
  </defs>
</svg>
