<svg viewBox="0 0 50 14" xmlns="http://www.w3.org/2000/svg">
  <path d="M47.0735 6.87619L45.9026 7.93408L46.9598 9.10422L48.1307 8.04633L47.0735 6.87619Z"/>
  <path d="M44.7402 7.82807L43.1787 9.23364L44.5849 10.7958L46.1464 9.39028L44.7402 7.82807Z"/>
  <path d="M49.1853 6.50381L48.4054 7.20679L49.1084 7.98673L49.8883 7.28375L49.1853 6.50381Z"/>
  <path d="M44.9919 2.04997L43.8198 3.10498L44.8748 4.27701L46.0469 3.22199L44.9919 2.04997Z"/>
  <path d="M48.1868 4.17322L47.4084 4.87646L48.1124 5.65557L48.8907 4.95232L48.1868 4.17322Z"/>
  <path d="M5.233 4.23901L4.468 8.20401H4.415L3.373 4.23901H2.706L1.732 8.20401H1.679L0.84 4.23901H0L1.214 9.55301H2.024L3.013 5.81201H3.066L4.085 9.55301H4.895L6.11 4.23901H5.233Z"/>
  <path d="M43.6319 5.12166L42.069 6.52856L43.4752 8.09077L45.0382 6.68387L43.6319 5.12166Z"/>
  <path d="M42.5158 2.45948L40.9536 3.86572L42.3599 5.42793L43.9221 4.02169L42.5158 2.45948Z"/>
  <path d="M46.0684 4.40691L44.8993 5.46216L45.9566 6.63351L47.1257 5.57826L46.0684 4.40691Z"/>
  <path d="M47.1844 1.85635L46.4044 2.55933L47.1074 3.33927L47.8873 2.63629L47.1844 1.85635Z"/>
  <path d="M34.355 5.84204L33.504 8.60304H33.459L32.5 5.84304H31.676L33.114 9.59204C32.934 10.147 32.62 10.551 32.11 10.551V11.164C32.971 11.164 33.428 10.625 33.803 9.59004L35.158 5.84204H34.355V5.84204Z"/>
  <path d="M9.542 7.54704C9.543 6.32204 8.966 5.71704 8.029 5.71704C6.905 5.71704 6.328 6.54004 6.328 7.68004C6.328 8.86504 6.846 9.64404 8.104 9.64404C8.643 9.64404 9.093 9.49404 9.43 9.29704V8.73004C9.018 8.97504 8.643 9.11904 8.239 9.11904C7.468 9.11904 7.1 8.72304 7.1 7.82204H9.542V7.54704V7.54704ZM7.115 7.31904C7.197 6.57104 7.55 6.21804 8.007 6.21804C8.412 6.21804 8.794 6.53104 8.831 7.31904H7.115Z"/>
  <path d="M48.1053 9.24392L46.9337 10.2996L47.99 11.4719L49.1616 10.4162L48.1053 9.24392Z"/>
  <path d="M31.439 7.54704C31.441 6.32204 30.863 5.71704 29.927 5.71704C28.802 5.71704 28.226 6.54004 28.226 7.68004C28.226 8.86504 28.743 9.64404 30.001 9.64404C30.54 9.64404 30.988 9.49404 31.326 9.29704V8.73004C30.915 8.97504 30.54 9.11904 30.136 9.11904C29.365 9.11904 28.996 8.72304 28.996 7.82204H31.439V7.54704V7.54704ZM29.011 7.31904C29.095 6.57104 29.448 6.21804 29.905 6.21804C30.308 6.21804 30.692 6.53104 30.729 7.31904H29.011Z"/>
  <path d="M46.05 10.572L44.523 11.98L41.945 9.11095L42.662 8.47995L40.857 6.45895L41.578 5.82695L39.746 3.80795L42.605 1.23395L43.513 2.22795L45.046 0.859953L45.952 1.79895L46.556 1.25795C46.421 1.17995 46.286 1.10795 46.149 1.04295C45.278 0.616952 44.3 0.376953 43.27 0.376953C39.653 0.376953 36.702 3.32695 36.702 6.94495C36.702 10.562 39.653 13.512 43.27 13.512C44.445 13.512 45.552 13.201 46.507 12.656C46.822 12.478 47.109 12.285 47.371 12.082L46.05 10.572Z"/>
  <path d="M12.016 5.71691C11.611 5.71691 11.229 5.87391 11.003 5.99391V3.85791L10.224 4.04491V9.27591C10.674 9.51491 11.288 9.64291 11.686 9.64291C12.773 9.64291 13.447 8.95991 13.447 7.55791C13.447 6.36091 12.945 5.71691 12.016 5.71691ZM11.686 9.11791C11.498 9.11791 11.237 9.10391 10.997 8.99891V6.54791C11.297 6.38291 11.515 6.30091 11.813 6.30091C12.315 6.30091 12.661 6.60891 12.661 7.55891C12.661 8.77291 12.241 9.11791 11.686 9.11791Z"/>
  <path d="M26.293 5.71509C25.431 5.71509 24.719 6.06709 24.382 6.26909V9.55109H25.16V6.58409C25.392 6.44909 25.775 6.31409 26.074 6.31409C26.459 6.31409 26.75 6.41909 26.75 7.01109V9.55209H27.529V6.84009C27.529 6.06909 27.191 5.71709 26.293 5.71509Z"/>
  <path d="M18.499 4.23901L16.897 8.42801H16.859L15.18 4.23901H14.274V9.55301H14.948V5.79001H15.015L16.544 9.55301H17.023L18.552 5.69901H18.619V9.55301H19.428V4.23901H18.499Z"/>
  <path d="M21.961 5.71704C20.972 5.71704 20.252 6.36904 20.252 7.68004C20.252 8.96104 20.935 9.64404 21.961 9.64404C22.988 9.64404 23.67 8.96104 23.67 7.68004C23.67 6.36804 22.95 5.71704 21.961 5.71704ZM21.961 9.11804C21.429 9.11804 21.039 8.70804 21.039 7.68004C21.039 6.66804 21.467 6.24104 21.961 6.24104C22.471 6.24104 22.883 6.66804 22.883 7.68004C22.883 8.70704 22.493 9.11804 21.961 9.11804Z"/>
</svg>
