<svg viewBox="0 0 83 20" xmlns="http://www.w3.org/2000/svg">
  <g clip-path="url(#clip0)">
    <path d="M4.68189 10.4447L2.41364 15.5449H0.756592L3.24895 10.0916C2.66491 9.79275 2.19632 9.35811 1.83639 8.78087C1.47646 8.20362 1.29989 7.42263 1.29989 6.42433C1.29989 5.73163 1.40175 5.12042 1.60549 4.59071C1.80922 4.061 2.08766 3.62637 2.4408 3.28002C2.79394 2.93367 3.2082 2.66881 3.6768 2.49903C4.14539 2.32246 4.64793 2.24097 5.16406 2.24097H7.30328V15.5517H5.87034V10.4515H4.68189V10.4447ZM5.87034 3.42942H5.10973C4.8245 3.42942 4.54607 3.48375 4.27442 3.58562C4.00277 3.69428 3.75829 3.85727 3.54776 4.08817C3.33724 4.31907 3.16746 4.62467 3.03843 5.00497C2.90939 5.38528 2.84148 5.85387 2.84148 6.41754C2.84148 6.95404 2.9026 7.40226 3.01805 7.76219C3.1335 8.12212 3.29649 8.41414 3.50023 8.63825C3.70396 8.86236 3.94844 9.01856 4.22688 9.11363C4.50532 9.20871 4.79734 9.25625 5.10973 9.25625H5.87034V3.42942Z"/>
    <path d="M14.2099 6.16634V15.545H12.777V11.3412H10.6174V15.545H9.16406V6.16634H10.6174V10.1528H12.777V6.16634H14.2099ZM21.6734 17.3854H20.3695V15.545H16.3491V17.3854H15.0452V14.3497H15.6225C15.833 13.854 16.0028 13.3039 16.125 12.6995C16.2473 12.095 16.3423 11.477 16.4102 10.8387C16.4782 10.2003 16.5189 9.54835 16.5393 8.88281C16.5596 8.21728 16.5664 7.57891 16.5664 6.95412V6.16634H20.9196V14.3565H21.6666V17.3854H21.6734ZM19.4934 7.3548H17.8771V7.52458C17.8771 8.02033 17.8703 8.56363 17.85 9.14767C17.8296 9.7385 17.7889 10.3361 17.7277 10.9405C17.6666 11.545 17.5783 12.1426 17.4697 12.7334C17.361 13.3242 17.2048 13.8607 17.0011 14.3565H19.4934V7.3548ZM27.9824 14.9134C27.6836 15.1511 27.344 15.3344 26.9569 15.4703C26.5698 15.6061 26.142 15.674 25.6734 15.674C24.7023 15.674 23.9417 15.3005 23.3848 14.5467C22.8279 13.7928 22.5495 12.6927 22.5495 11.2461C22.5495 10.4923 22.6038 9.79283 22.7057 9.16125C22.8143 8.52967 22.9773 7.97959 23.2082 7.51099C23.4391 7.0424 23.7311 6.68247 24.0911 6.42441C24.451 6.16634 24.8788 6.03052 25.3746 6.03052C25.7617 6.03052 26.1148 6.10522 26.434 6.26142C26.7532 6.41761 27.0316 6.66889 27.2557 7.01524C27.4799 7.36159 27.6496 7.80981 27.7787 8.36668C27.9009 8.91677 27.962 9.5891 27.962 10.3837V11.185H24.0503C24.0503 12.2512 24.1929 13.0594 24.4849 13.6027C24.777 14.146 25.2116 14.4244 25.7956 14.4244C26.2031 14.4244 26.5698 14.3565 26.8822 14.2071C27.2014 14.0645 27.4527 13.9219 27.6361 13.786L27.9824 14.9134ZM25.3746 7.22577C24.9264 7.22577 24.614 7.47704 24.4238 7.97959C24.2337 8.48213 24.1182 9.15446 24.0707 9.99657H26.4748C26.4748 9.60268 26.4544 9.22916 26.4204 8.8896C26.3865 8.55005 26.3254 8.25123 26.2439 8.00675C26.1624 7.75548 26.0537 7.56532 25.9111 7.4295C25.7685 7.29368 25.5851 7.22577 25.3746 7.22577ZM30.9026 10.8726V15.545H29.4493V6.16634H30.9026V10.5059L33.1573 6.16634H34.631L32.3016 10.5806L34.9637 15.5518H33.3814L30.9026 10.8726ZM38.3661 15.674C37.361 15.674 36.5732 15.2733 36.0028 14.472C35.4323 13.6706 35.1471 12.4618 35.1471 10.8523C35.1471 10.1188 35.215 9.45327 35.3644 8.86244C35.507 8.26482 35.7175 7.76227 35.996 7.34801C36.2744 6.93374 36.6208 6.60777 37.035 6.37687C37.4493 6.14597 37.9315 6.03052 38.4748 6.03052C38.8958 6.03052 39.2354 6.07806 39.5002 6.17313C39.7583 6.26821 39.996 6.38366 40.2065 6.51948L40.0028 7.89809C39.8058 7.72152 39.5681 7.56532 39.3033 7.4295C39.0384 7.29368 38.7532 7.22577 38.4544 7.22577C37.9315 7.22577 37.5036 7.51779 37.1709 8.10862C36.8381 8.69266 36.6683 9.5891 36.6683 10.7843C36.6683 11.966 36.8109 12.8828 37.0894 13.528C37.3678 14.1731 37.8092 14.4923 38.4001 14.4923C38.76 14.4923 39.0724 14.4312 39.3304 14.309C39.5885 14.1867 39.8058 14.0509 39.9824 13.8947L40.3152 14.9745C40.0639 15.185 39.7855 15.3548 39.4799 15.4838C39.1743 15.6129 38.8007 15.674 38.3661 15.674Z"/>
    <path d="M50.1896 15.5447H44.4917L44.3627 17.7586H43.636V14.8044H44.0299C44.3491 14.5328 44.6004 14.0438 44.777 13.3511C44.9535 12.6584 45.0894 11.8299 45.1844 10.8723C45.2863 9.88084 45.3542 8.65842 45.3882 7.21191C45.4221 5.76539 45.4561 4.10834 45.4833 2.24756H50.1353V14.8112H51.0453V17.7722H50.3186L50.1896 15.5447ZM49.1981 2.98101H46.3118C46.2846 4.68559 46.2507 6.18644 46.2031 7.46997C46.1556 8.76029 46.0945 9.88763 46.0198 10.8588C45.9315 11.8706 45.8092 12.6992 45.6598 13.3511C45.5036 14.0031 45.2999 14.4852 45.0554 14.7976H49.2049V2.98101H49.1981Z"/>
    <path d="M52.8313 11.0017C52.8585 12.2989 53.035 13.2836 53.3678 13.9627C53.7006 14.6418 54.2099 14.9814 54.8958 14.9814C55.2082 14.9814 55.4799 14.9338 55.7175 14.832C55.9552 14.7301 56.1522 14.6079 56.3152 14.472C56.4985 14.3362 56.6615 14.1596 56.7973 13.9627L57.0758 14.669C56.9264 14.8795 56.7498 15.0629 56.5393 15.2055C56.3559 15.3413 56.125 15.4635 55.8534 15.5654C55.5817 15.6673 55.2557 15.7216 54.8822 15.7216C53.8907 15.7216 53.1573 15.2938 52.6887 14.4381C52.2201 13.5824 51.9824 12.3871 51.9824 10.8455C51.9824 10.0781 52.0503 9.39223 52.1862 8.78782C52.322 8.1834 52.5121 7.67407 52.7566 7.25301C53.0011 6.83196 53.2863 6.51278 53.6191 6.29546C53.9518 6.07814 54.3186 5.96948 54.7192 5.96948C55.1267 5.96948 55.4934 6.07814 55.8194 6.28867C56.1386 6.49919 56.4102 6.81838 56.6208 7.23943C56.8313 7.66048 56.9807 8.1834 57.069 8.81498C57.1573 9.43977 57.1641 10.1732 57.0894 11.0017H52.8313ZM54.7125 6.7233C54.2167 6.7233 53.7889 7.02891 53.4357 7.64011C53.0826 8.25132 52.8856 9.14096 52.8517 10.3158H56.2608C56.3355 9.06626 56.2133 8.15624 55.9009 7.58578C55.5885 7.01532 55.181 6.7233 54.7125 6.7233Z"/>
    <path d="M62.8075 11.0627H59.6089V15.5517H58.7328V6.16626H59.6089V10.3157H62.8075V6.16626H63.6836V15.5449H62.8075V11.0627Z"/>
    <path d="M65.7481 6.16626H66.6242V9.64334H67.3101C68.2065 9.64334 68.9196 9.88782 69.4493 10.37C69.9858 10.8522 70.2507 11.5856 70.2507 12.5635C70.2507 13.5551 69.9722 14.3021 69.4153 14.7978C68.8585 15.2936 68.1386 15.5449 67.2558 15.5449H65.7481V6.16626ZM66.6242 10.336V14.859H67.181C67.8398 14.859 68.3695 14.6824 68.7838 14.3292C69.198 13.9761 69.395 13.3989 69.395 12.5907C69.395 11.7961 69.2116 11.2257 68.8381 10.8658C68.4646 10.5126 67.9417 10.336 67.2761 10.336H66.6242Z"/>
    <path d="M72.614 6.9065V15.5449H71.7583V6.16626H75.7244V6.91329H72.614V6.9065Z"/>
    <path d="M81.4357 9.01172C81.4357 8.76044 81.4425 8.53633 81.4561 8.3326C81.4697 8.12886 81.4901 7.92513 81.5104 7.72818H81.4561C81.395 7.93871 81.3203 8.14245 81.232 8.3326C81.1437 8.52275 81.0486 8.72649 80.9536 8.93701L77.9043 15.5448H77.1573V6.16622H77.979V12.6789C77.979 12.9302 77.9722 13.1543 77.9586 13.3649C77.9451 13.5754 77.9247 13.7859 77.9043 13.9964H77.9586C78.0198 13.7859 78.0945 13.5754 78.1828 13.3716C78.271 13.1679 78.3593 12.9574 78.4612 12.7469L81.5104 6.15942H82.271V15.538H81.4357V9.01172Z"/>
  </g>
  <defs>
    <clipPath id="clip0">
      <rect width="82.9542" height="20" fill="white" transform="translate(0.0367432)"/>
    </clipPath>
  </defs>
</svg>
