<svg viewBox="0 0 59 7" fill="none" xmlns="http://www.w3.org/2000/svg">
<path fill-rule="evenodd" clip-rule="evenodd" d="M57.2216 3.86842H37L0.375989 3.86843C0.150396 3.86843 0 3.72107 0 3.50001C0 3.27896 0.150396 3.13159 0.375989 3.13159L37 3.13158H57.2216L54.6649 0.626315C54.5145 0.478947 54.5145 0.257895 54.6649 0.110526C54.8153 -0.0368421 55.0409 -0.0368421 55.1913 0.110526L58.3872 3.24211C58.5376 3.38947 58.5376 3.61053 58.3872 3.75789L55.1913 6.88947C55.1161 6.96316 55.0033 7 54.9281 7C54.8529 7 54.7401 6.96316 54.6649 6.88947C54.5145 6.74211 54.5145 6.52105 54.6649 6.37369L57.2216 3.86842Z" fill="white"/>
</svg>
