<svg viewBox="0 0 368 315" fill="none" xmlns="http://www.w3.org/2000/svg">
<path d="M73.42 114.15C125.227 143.809 116.404 230.38 60.2087 230.38C35.9718 230.38 14.9964 212.193 5.65656 188.942C-15.9119 135.241 28.9404 88.678 73.42 114.15Z" fill="#FAC663" fill-opacity="0.15"/>
<path d="M126.629 124.87C64.4691 124.87 45.8572 19.5077 104.912 2.18557C131.818 -5.70391 162.413 13.2265 172.239 47.8316C183.265 86.6183 161.574 124.87 126.629 124.87Z" fill="#FAC663" fill-opacity="0.15"/>
<path d="M142.616 312.419C151.248 310.036 166.569 308.502 182.606 308.28C199.557 308.033 217.305 309.245 228.788 312.419C259.802 321.043 302.003 300.178 292.744 256.844C284.179 216.784 253.406 219.066 246.129 181.101C238.797 142.731 210.303 124.214 182.606 125.661C156.971 127.004 132.022 145.457 125.224 181.109C117.989 219.101 87.2795 216.797 78.7275 256.844C69.4342 300.213 111.724 320.964 142.616 312.419Z" fill="#FAC663" fill-opacity="0.15"/>
<path d="M236.029 124.874C218.446 124.874 203.346 114.681 194.955 99.0799C170.01 52.6906 210.978 -11.5295 257.749 2.22384C316.906 19.5938 298.154 124.874 236.029 124.874Z" fill="#FAC663" fill-opacity="0.15"/>
<path d="M264.125 195.884C244.166 147.138 291.475 87.5952 336.658 106.33C391.083 128.895 367.079 226.216 307.236 226.216C288.031 226.216 271.711 214.414 264.125 195.884Z" fill="#FAC663" fill-opacity="0.15"/>
</svg>
