<svg width="10" height="12" viewBox="0 0 10 12" fill="none" xmlns="http://www.w3.org/2000/svg">
<path d="M6.16575 0H2.27989C1.87918 0 1.55432 0.297387 1.55432 0.664207V5.6915H0.72557C0.324862 5.6915 0 5.98889 0 6.35571C0 6.72252 0.324862 7.01991 0.72557 7.01991H1.55432V8.53727H0.72557C0.324862 8.53727 0 8.83466 0 9.20148C0 9.5683 0.324862 9.86568 0.72557 9.86568H1.55432V11.3358C1.55432 11.7026 1.87918 12 2.27989 12C2.68059 12 3.00546 11.7026 3.00546 11.3358V9.86568H6.16575C6.56646 9.86568 6.89132 9.5683 6.89132 9.20148C6.89132 8.83466 6.56646 8.53727 6.16575 8.53727H3.00546V7.01991H6.16575C8.27996 7.01991 10 5.44534 10 3.50993C9.99995 1.5267 8.23522 0 6.16575 0V0ZM6.16575 5.6915H3.00546V1.32841H6.16575C7.47187 1.32841 8.54886 2.29284 8.54886 3.50998C8.54881 4.7129 7.4798 5.6915 6.16575 5.6915Z" fill="black"/>
</svg>
