<svg viewBox="0 0 97 96" xmlns="http://www.w3.org/2000/svg">
<path d="M45.9947 86.2475H44.6865C44.3829 82.0242 42.5678 78.0518 39.5739 75.0578C36.5799 72.0638 32.6074 70.2488 28.3842 69.9451V66.1211H31.5289C31.8626 66.1211 32.1825 65.9886 32.4184 65.7527C32.6543 65.5168 32.7868 65.1969 32.7868 64.8632C32.7868 64.5296 32.6543 64.2097 32.4184 63.9738C32.1825 63.7379 31.8626 63.6053 31.5289 63.6053H22.7237C22.3901 63.6053 22.0701 63.7379 21.8342 63.9738C21.5983 64.2097 21.4658 64.5296 21.4658 64.8632C21.4658 65.1969 21.5983 65.5168 21.8342 65.7527C22.0701 65.9886 22.3901 66.1211 22.7237 66.1211H25.8684V69.9451C21.6452 70.2488 17.6727 72.0638 14.6788 75.0578C11.6848 78.0518 9.86974 82.0242 9.5661 86.2475H8.25789C7.92428 86.2475 7.60433 86.38 7.36843 86.6159C7.13253 86.8518 7 87.1717 7 87.5053C7 87.839 7.13253 88.1589 7.36843 88.3948C7.60433 88.6307 7.92428 88.7632 8.25789 88.7632H45.9947C46.3283 88.7632 46.6483 88.6307 46.8842 88.3948C47.1201 88.1589 47.2526 87.839 47.2526 87.5053C47.2526 87.1717 47.1201 86.8518 46.8842 86.6159C46.6483 86.38 46.3283 86.2475 45.9947 86.2475ZM27.1263 72.4106C30.9112 72.4116 34.5576 73.8345 37.3429 76.3973C40.1282 78.9601 41.849 82.4757 42.1644 86.2475H12.0882C12.4036 82.4757 14.1245 78.9601 16.9097 76.3973C19.695 73.8345 23.3414 72.4116 27.1263 72.4106Z" />
<path d="M89.5714 26.416L71.3949 7.39037C71.2809 7.27072 71.1445 7.1747 70.9934 7.1078C70.8423 7.04089 70.6795 7.0044 70.5143 7.00042C70.349 6.99614 70.1845 7.02449 70.0302 7.08384C69.8759 7.1432 69.7348 7.2324 69.6149 7.34634L62.4261 14.2144L24.381 50.5676C23.6151 51.2979 23.0831 52.239 22.8525 53.2719C22.6219 54.3047 22.703 55.3828 23.0855 56.3695C23.4681 57.3562 24.1349 58.2071 25.0015 58.8146C25.8681 59.422 26.8954 59.7586 27.9535 59.7817H28.0793C29.4557 59.7837 30.7792 59.2515 31.7712 58.2974L44.1992 46.4291C44.5501 47.1062 44.9971 47.729 45.5263 48.2782L54.3944 57.5678C55.2521 58.4681 56.2793 59.1899 57.417 59.6919C58.5547 60.1938 59.7803 60.4658 61.0235 60.4924H61.2436C63.6777 60.4986 66.0188 59.5581 67.7721 57.8697L77.0617 48.9952C78.0423 48.0351 78.6203 46.7374 78.6781 45.3662C78.7179 44.6479 78.6101 43.9291 78.3613 43.2541C78.1125 42.579 77.728 41.9622 77.2315 41.4416C76.5252 40.7114 75.612 40.2154 74.6151 40.0202L77.1937 37.5547C78.305 36.5058 79.0222 35.1069 79.2253 33.5923L80.5901 35.02C80.8213 35.2593 81.1379 35.3973 81.4706 35.4037C81.7936 35.4041 82.1044 35.2802 82.3385 35.0578L89.5274 28.1897C89.7676 27.9598 89.9071 27.6443 89.9154 27.3119C89.9236 26.9796 89.8 26.6575 89.5714 26.416ZM71.7974 25.8688L75.5711 29.8375C76.3377 30.6402 76.7544 31.7143 76.7296 32.824C76.7048 33.9337 76.2407 34.9882 75.439 35.7559L69.659 41.2718L60.3568 50.1462C60.229 50.258 60.1252 50.3946 60.0516 50.5476C59.978 50.7006 59.9362 50.8669 59.9286 51.0365C59.921 51.2062 59.9478 51.3756 60.0074 51.5346C60.067 51.6936 60.1582 51.8388 60.2755 51.9616C60.3928 52.0844 60.5337 52.1822 60.6898 52.2491C60.8458 52.3159 61.0138 52.3505 61.1836 52.3507C61.3534 52.3509 61.5215 52.3168 61.6777 52.2503C61.834 52.1838 61.9752 52.0864 62.0927 51.9639L71.4011 43.0705C72.2188 42.3032 74.3257 42.0391 75.4012 43.1712C75.6618 43.4459 75.8628 43.7716 75.9916 44.1276C76.1204 44.4837 76.1742 44.8626 76.1497 45.2404C76.1259 45.9687 75.827 46.6609 75.3132 47.1776L66.0174 56.0583C65.3599 56.6916 64.5836 57.1885 63.7332 57.5205C62.8829 57.8524 61.9752 58.0127 61.0626 57.9923C60.15 57.9718 59.2504 57.7709 58.4158 57.4012C57.5811 57.0315 56.8279 56.5003 56.1995 55.8382L56.1555 55.7816C55.6136 55.2272 55.1886 54.5696 54.9056 53.848C54.6225 53.1263 54.4872 52.3551 54.5076 51.5802C54.598 49.642 55.4314 47.8131 56.8347 46.4732C56.9625 46.3613 57.0663 46.2248 57.1399 46.0718C57.2135 45.9188 57.2554 45.7524 57.263 45.5828C57.2706 45.4132 57.2438 45.2438 57.1842 45.0848C57.1245 44.9258 57.0333 44.7805 56.9161 44.6577C56.7988 44.535 56.6579 44.4372 56.5018 44.3703C56.3457 44.3034 56.1777 44.2688 56.0079 44.2686C55.8381 44.2684 55.67 44.3026 55.5138 44.3691C55.3576 44.4356 55.2164 44.533 55.0988 44.6555C53.2265 46.4231 52.1165 48.8506 52.0044 51.423C50.9803 50.3195 50.4294 48.8586 50.4698 47.3537C50.5525 45.4038 51.3918 43.5628 52.8095 42.2215C52.9372 42.1097 53.0411 41.9731 53.1147 41.8201C53.1883 41.6671 53.2301 41.5008 53.2377 41.3311C53.2453 41.1615 53.2185 40.9921 53.1589 40.8331C53.0993 40.6741 53.0081 40.5289 52.8908 40.4061C52.7735 40.2833 52.6326 40.1855 52.4765 40.1186C52.3205 40.0517 52.1525 40.0172 51.9827 40.0169C51.8129 40.0167 51.6448 40.0509 51.4885 40.1174C51.3323 40.1839 51.1911 40.2813 51.0736 40.4038C49.1967 42.1765 48.0844 44.6109 47.9729 47.1902L47.3439 46.5235C46.779 45.9947 46.3648 45.3252 46.1437 44.5836C45.9227 43.842 45.9028 43.055 46.086 42.3032C46.554 40.6383 47.4906 39.1429 48.7842 37.9949C49.0086 37.7611 49.1342 37.4496 49.1346 37.1255C49.135 36.8013 49.0102 36.4896 48.7864 36.2552C48.5625 36.0207 48.2568 35.8818 47.933 35.8673C47.6091 35.8528 47.2922 35.9638 47.0483 36.1773C45.3954 37.6694 44.2075 39.6063 43.6268 41.7561C43.4873 42.3747 43.4323 43.0094 43.4633 43.6429L43.3941 43.6932L30.0353 56.486C29.4881 56.9869 28.7665 57.2535 28.0251 57.2288C27.2837 57.204 26.5815 56.8897 26.0691 56.3534C25.5566 55.8171 25.2746 55.1013 25.2836 54.3596C25.2925 53.6178 25.5917 52.9091 26.1169 52.3853L63.2563 16.9063L71.7974 25.8688ZM81.5146 32.3973L77.4139 28.1016L73.6402 24.1267L65.0739 15.1767L70.42 10.0382L86.8544 27.2399L81.5146 32.3973Z" />
</svg>
