<svg viewBox="0 0 25 28" xmlns="http://www.w3.org/2000/svg">
<path d="M23.0389 22.0177L23.0309 22.0108C21.8932 20.8535 20.725 19.7302 19.5261 18.6413C19.5153 18.6318 19.5045 18.6222 19.4957 18.6127C19.2481 18.4042 18.9502 18.2575 18.6047 18.1727C18.122 18.0203 17.6481 18.0639 17.1838 18.3026C17.1582 18.3167 17.1342 18.3312 17.1086 18.3461C16.9282 18.4603 16.7595 18.5806 16.6027 18.7067V18.7135C15.9788 19.2211 15.3538 19.7283 14.7287 20.2363C13.2126 19.8024 11.8989 19.0378 10.7859 17.9416C10.0089 17.1835 9.38423 16.3371 8.91193 15.4021C8.65518 14.8961 8.42883 14.3915 8.23207 13.887C8.90913 13.1319 9.55099 12.36 10.1585 11.5717C10.1633 11.5629 10.1685 11.5561 10.1737 11.5499C10.3976 11.2528 10.5008 10.8987 10.484 10.4893C10.47 9.86294 10.2272 9.31983 9.75855 8.85883V8.85119C8.75116 7.87 7.73378 6.89836 6.7068 5.93626C6.7012 5.93129 6.6968 5.92671 6.6916 5.92175C5.87138 5.13954 4.91478 4.9016 3.82102 5.20791L3.83621 5.20027C3.47789 5.29461 3.13716 5.42447 2.81603 5.59023C2.77804 5.612 2.74005 5.63568 2.70325 5.66241C1.72026 6.36135 0.968026 7.20696 0.443738 8.2019L0.436939 8.21641C-0.024962 9.12122 -0.120142 10.0566 0.149001 11.0233V11.0156C0.66809 12.9494 1.38194 14.7987 2.29414 16.5632L2.30254 16.5705C3.15596 18.2021 4.17534 19.7253 5.36189 21.1377H5.36988C6.63481 22.6383 8.1101 23.9311 9.79654 25.0193L9.80454 25.0265C11.2686 25.9512 12.8175 26.6849 14.4503 27.2272H14.4423C15.8077 27.6905 17.2006 27.9472 18.6203 27.9991C18.7198 28.0026 18.817 27.9907 18.9142 27.9629C19.2901 27.8571 19.6604 27.7291 20.0248 27.5809C21.3793 27.0336 22.465 26.1804 23.2809 25.0197H23.2729C24.0251 23.959 23.9459 22.9591 23.0389 22.0177ZM18.0452 19.8246H18.0532L18.0452 19.8322V19.8246ZM21.778 24.0522H21.77C21.1549 24.9311 20.3363 25.5777 19.3149 25.9932C19.0622 26.0952 18.8058 26.1834 18.5439 26.2602C17.3581 26.204 16.192 25.9829 15.0462 25.5968H15.039C13.5489 25.0999 12.136 24.4284 10.8007 23.5836L10.8079 23.5912C9.27145 22.6001 7.92694 21.4222 6.77438 20.0556H6.78238C5.67222 18.7364 4.71802 17.3153 3.9186 15.7921L3.92619 15.799C3.06678 14.1399 2.39172 12.4009 1.90223 10.5829V10.576C1.75066 10.0276 1.80265 9.49552 2.06059 8.98181C2.06299 8.97685 2.06499 8.97227 2.06739 8.9673C2.45811 8.24086 3.00999 7.61754 3.72264 7.09849C3.9106 7.00453 4.10975 6.93006 4.31971 6.87468L4.33411 6.86742C4.74442 6.75169 5.10274 6.84565 5.40708 7.14891C5.41348 7.15311 5.41787 7.15845 5.42227 7.16342C6.44486 8.12055 7.45704 9.08723 8.45882 10.0638V10.0558C8.594 10.1914 8.66558 10.3503 8.67078 10.5321V10.547C8.67078 10.5554 8.67398 10.5626 8.67758 10.5688C8.00372 11.4453 7.28628 12.2985 6.52484 13.1296C6.41766 13.245 6.34688 13.3771 6.31328 13.5265C6.28249 13.6781 6.29249 13.827 6.34368 13.9741C6.59802 14.7005 6.91036 15.4262 7.27988 16.153C7.83616 17.2576 8.5712 18.2579 9.48621 19.1543C10.9447 20.5884 12.6951 21.5456 14.7359 22.0257C14.8799 22.0612 15.0234 22.0639 15.167 22.0333C15.3074 21.9993 15.4337 21.9367 15.5445 21.8458C16.29 21.24 17.0358 20.6331 17.78 20.0274V20.0346C17.868 19.9632 17.9616 19.8937 18.06 19.8253C18.088 19.8379 18.116 19.8479 18.1432 19.854C18.2035 19.8685 18.2571 19.8929 18.3015 19.9266C19.4669 20.9807 20.6022 22.0669 21.708 23.1871L21.7164 23.1944C21.9707 23.4633 21.9907 23.7497 21.778 24.0522Z"/>
<path d="M24.6889 11.8737C23.6643 5.8494 19.7592 2.10032 12.9718 0.626432C12.7283 0.572198 12.4987 0.608482 12.2848 0.734902C12.0736 0.862851 11.9396 1.04351 11.8844 1.27572C11.8269 1.50947 11.8648 1.72832 11.9976 1.93265C12.1316 2.1347 12.3204 2.26226 12.5643 2.31497C18.529 3.61164 21.9767 6.89399 22.9057 12.1624C22.9453 12.3958 23.0661 12.5806 23.268 12.7185C23.474 12.8583 23.7003 12.9091 23.9471 12.8698C24.1914 12.8319 24.3862 12.7162 24.5298 12.5233C24.6765 12.327 24.7293 12.1105 24.6889 11.8737Z"/>
<path d="M12.5942 6.67929C15.8247 7.29574 17.8147 9.2058 18.5621 12.4079C18.6177 12.6405 18.7509 12.8212 18.9625 12.9491C19.1736 13.0782 19.4004 13.1168 19.6423 13.0649C19.8859 13.0122 20.0746 12.885 20.2086 12.6826C20.3438 12.4809 20.3841 12.2647 20.3298 12.0333C19.406 8.07909 16.9433 5.72713 12.9421 4.97739C12.6974 4.93117 12.4698 4.97433 12.2623 5.10725C12.0539 5.24245 11.9251 5.42769 11.8764 5.66335C11.8276 5.89709 11.8732 6.11327 12.0123 6.31264C12.1551 6.5101 12.3487 6.63308 12.5942 6.67929Z"/>
</svg>
