<svg viewBox="0 0 73 94" xmlns="http://www.w3.org/2000/svg">
<path d="M64.5369 23.1199C64.8918 23.1199 65.2322 22.9797 65.4831 22.7301C65.734 22.4806 65.875 22.1421 65.875 21.7891V13.8041C65.8729 12.0399 65.1673 10.3486 63.9131 9.1012C62.6589 7.85376 60.9584 7.15202 59.1847 7.1499H13.6903C11.9166 7.15202 10.2161 7.85376 8.9619 9.1012C7.70768 10.3486 7.00212 12.0399 7 13.8041V65.7067C7.00212 67.4708 7.70768 69.1621 8.9619 70.4095C10.2161 71.657 11.9166 72.3587 13.6903 72.3608H59.1847C60.9584 72.3587 62.6589 71.657 63.9131 70.4095C65.1673 69.1621 65.8729 67.4708 65.875 65.7067V57.7216C65.875 57.3687 65.734 57.0302 65.4831 56.7806C65.2322 56.531 64.8918 56.3908 64.5369 56.3908H57.8466V23.1199H64.5369ZM57.8466 9.81157H59.1847C60.2493 9.81157 61.2703 10.2322 62.0231 10.981C62.7759 11.7297 63.1989 12.7452 63.1989 13.8041V20.4583H57.8466V9.81157ZM55.1705 21.7891V69.6992H13.6903C12.6257 69.6992 11.6047 69.2785 10.8519 68.5298C10.0991 67.781 9.67614 66.7655 9.67614 65.7067V13.8041C9.67614 12.7452 10.0991 11.7297 10.8519 10.981C11.6047 10.2322 12.6257 9.81157 13.6903 9.81157H55.1705V21.7891ZM63.1989 59.0525V65.7067C63.1989 66.7655 62.7759 67.781 62.0231 68.5298C61.2703 69.2785 60.2493 69.6992 59.1847 69.6992H57.8466V59.0525H63.1989Z" />
<path d="M57.847 85.6691V80.3458C57.847 79.9928 57.7061 79.6543 57.4551 79.4048C57.2042 79.1552 56.8638 79.015 56.509 79.015H52.4948V76.3533C52.4948 76.0003 52.3538 75.6618 52.1029 75.4123C51.8519 75.1627 51.5116 75.0225 51.1567 75.0225H40.4522C40.0973 75.0225 39.7569 75.1627 39.506 75.4123C39.2551 75.6618 39.1141 76.0003 39.1141 76.3533C39.1141 76.7063 39.2551 77.0448 39.506 77.2943C39.7569 77.5439 40.0973 77.6841 40.4522 77.6841H49.8186V79.015H17.705C17.6946 79.0165 17.6843 79.0188 17.6742 79.0216C17.541 79.0219 17.4087 79.043 17.2822 79.0842L9.25375 81.7458C8.98605 81.8334 8.75295 82.0027 8.58771 82.2297C8.42246 82.4568 8.3335 82.7299 8.3335 83.0101C8.3335 83.2904 8.42246 83.5635 8.58771 83.7906C8.75295 84.0176 8.98605 84.1869 9.25375 84.2744L17.2822 86.9361C17.4187 86.9802 17.5615 87.0018 17.705 87H56.509C56.8638 87 57.2042 86.8598 57.4551 86.6102C57.7061 86.3606 57.847 86.0221 57.847 85.6691ZM16.3669 83.8219L13.9076 83.0075L16.3669 82.193V83.8219ZM49.8186 84.3383H19.0431V81.6766H49.8186V84.3383ZM55.1709 84.3383H52.4948V81.6766H55.1709V84.3383Z" />
<path d="M27.071 29.4228V37.7592C27.0709 38.0001 27.1367 38.2365 27.2611 38.4432C27.3856 38.6499 27.5642 38.8191 27.7778 38.9328C27.9914 39.0465 28.232 39.1003 28.474 39.0886C28.7159 39.077 28.9502 39.0002 29.1517 38.8664L32.4232 36.6945L35.6948 38.8638C35.8961 38.9974 36.1301 39.0742 36.3719 39.086C36.6136 39.0978 36.854 39.0441 37.0675 38.9308C37.281 38.8174 37.4596 38.6486 37.5843 38.4423C37.709 38.236 37.7751 37.9999 37.7755 37.7592V29.4228C39.412 28.2895 40.642 26.6664 41.2867 24.7896C41.9314 22.9128 41.957 20.8804 41.3599 18.9881C40.7628 17.0958 39.574 15.4424 37.9667 14.2687C36.3593 13.0949 34.4173 12.4619 32.4232 12.4619C30.4292 12.4619 28.4871 13.0949 26.8798 14.2687C25.2725 15.4424 24.0837 17.0958 23.4866 18.9881C22.8895 20.8804 22.9151 22.9128 23.5598 24.7896C24.2045 26.6664 25.4345 28.2895 27.071 29.4228ZM35.0994 35.2785L33.1659 33.9956C32.946 33.8497 32.6876 33.7718 32.4232 33.7718C32.1589 33.7718 31.9005 33.8497 31.6806 33.9956L29.7471 35.2732V30.7058C31.4924 31.2292 33.3541 31.2292 35.0994 30.7058V35.2785ZM32.4232 15.135C33.7465 15.135 35.04 15.5252 36.1402 16.2564C37.2404 16.9876 38.0979 18.0268 38.6043 19.2427C39.1107 20.4586 39.2432 21.7965 38.985 23.0873C38.7269 24.3781 38.0897 25.5638 37.154 26.4944C36.2184 27.425 35.0263 28.0587 33.7285 28.3155C32.4307 28.5722 31.0855 28.4405 29.863 27.9368C28.6405 27.4332 27.5956 26.5803 26.8604 25.486C26.1253 24.3917 25.7329 23.1052 25.7329 21.7892C25.735 20.025 26.4406 18.3337 27.6948 17.0863C28.949 15.8388 30.6495 15.1371 32.4232 15.135Z" />
<path d="M32.4233 25.7814C33.2172 25.7814 33.9933 25.5472 34.6534 25.1085C35.3136 24.6698 35.8281 24.0463 36.1319 23.3168C36.4357 22.5872 36.5152 21.7845 36.3603 21.01C36.2054 20.2355 35.8231 19.5241 35.2617 18.9658C34.7003 18.4074 33.9851 18.0272 33.2064 17.8731C32.4277 17.7191 31.6206 17.7981 30.8871 18.1003C30.1536 18.4025 29.5267 18.9142 29.0856 19.5708C28.6445 20.2273 28.4091 20.9993 28.4091 21.7889C28.4091 22.8478 28.832 23.8633 29.5848 24.612C30.3376 25.3608 31.3586 25.7814 32.4233 25.7814ZM32.4233 20.4581C32.6879 20.4581 32.9466 20.5361 33.1667 20.6823C33.3867 20.8286 33.5582 21.0364 33.6595 21.2796C33.7607 21.5228 33.7872 21.7904 33.7356 22.0485C33.684 22.3067 33.5566 22.5438 33.3694 22.7299C33.1823 22.9161 32.9439 23.0428 32.6843 23.0942C32.4247 23.1455 32.1557 23.1192 31.9112 23.0184C31.6667 22.9177 31.4577 22.7471 31.3107 22.5283C31.1637 22.3094 31.0852 22.0521 31.0852 21.7889C31.0852 21.4359 31.2262 21.0974 31.4771 20.8479C31.728 20.5983 32.0684 20.4581 32.4233 20.4581Z" />
<path d="M29.7471 41.7515C29.3922 41.7515 29.0519 41.8917 28.801 42.1413C28.55 42.3908 28.4091 42.7293 28.4091 43.0823C28.4091 43.4353 28.55 43.7738 28.801 44.0233C29.0519 44.2729 29.3922 44.4131 29.7471 44.4131H35.0994C35.4543 44.4131 35.7946 44.2729 36.0456 44.0233C36.2965 43.7738 36.4375 43.4353 36.4375 43.0823C36.4375 42.7293 36.2965 42.3908 36.0456 42.1413C35.7946 41.8917 35.4543 41.7515 35.0994 41.7515H29.7471Z" />
<path d="M23.0568 59.0522H13.6904C13.3355 59.0522 12.9951 59.1925 12.7442 59.442C12.4933 59.6916 12.3523 60.0301 12.3523 60.3831C12.3523 60.736 12.4933 61.0745 12.7442 61.3241C12.9951 61.5737 13.3355 61.7139 13.6904 61.7139H23.0568C23.4117 61.7139 23.7521 61.5737 24.003 61.3241C24.2539 61.0745 24.3949 60.736 24.3949 60.3831C24.3949 60.0301 24.2539 59.6916 24.003 59.442C23.7521 59.1925 23.4117 59.0522 23.0568 59.0522Z" />
<path d="M19.0426 64.376H13.6904C13.3355 64.376 12.9951 64.5162 12.7442 64.7658C12.4933 65.0153 12.3523 65.3539 12.3523 65.7068C12.3523 66.0598 12.4933 66.3983 12.7442 66.6479C12.9951 66.8974 13.3355 67.0376 13.6904 67.0376H19.0426C19.3975 67.0376 19.7379 66.8974 19.9888 66.6479C20.2397 66.3983 20.3807 66.0598 20.3807 65.7068C20.3807 65.3539 20.2397 65.0153 19.9888 64.7658C19.7379 64.5162 19.3975 64.376 19.0426 64.376Z" />
<path d="M40.4517 60.3831C40.4517 60.736 40.5926 61.0745 40.8436 61.3241C41.0945 61.5737 41.4349 61.7139 41.7897 61.7139H51.1562C51.5111 61.7139 51.8514 61.5737 52.1024 61.3241C52.3533 61.0745 52.4943 60.736 52.4943 60.3831C52.4943 60.0301 52.3533 59.6916 52.1024 59.442C51.8514 59.1925 51.5111 59.0522 51.1562 59.0522H41.7897C41.4349 59.0522 41.0945 59.1925 40.8436 59.442C40.5926 59.6916 40.4517 60.0301 40.4517 60.3831Z" />
<path d="M51.1563 64.376H45.804C45.4491 64.376 45.1088 64.5162 44.8579 64.7658C44.6069 65.0153 44.4659 65.3539 44.4659 65.7068C44.4659 66.0598 44.6069 66.3983 44.8579 66.6479C45.1088 66.8974 45.4491 67.0376 45.804 67.0376H51.1563C51.5112 67.0376 51.8515 66.8974 52.1024 66.6479C52.3534 66.3983 52.4944 66.0598 52.4944 65.7068C52.4944 65.3539 52.3534 65.0153 52.1024 64.7658C51.8515 64.5162 51.5112 64.376 51.1563 64.376Z" />
<path d="M19.0427 49.7369H45.804C46.1589 49.7369 46.4992 49.5967 46.7502 49.3471C47.0011 49.0975 47.1421 48.759 47.1421 48.406C47.1421 48.0531 47.0011 47.7146 46.7502 47.465C46.4992 47.2154 46.1589 47.0752 45.804 47.0752H19.0427C18.6878 47.0752 18.3474 47.2154 18.0965 47.465C17.8456 47.7146 17.7046 48.0531 17.7046 48.406C17.7046 48.759 17.8456 49.0975 18.0965 49.3471C18.3474 49.5967 18.6878 49.7369 19.0427 49.7369Z" />
<path d="M43.1279 55.0601C43.4828 55.0601 43.8231 54.9199 44.0741 54.6703C44.325 54.4207 44.466 54.0822 44.466 53.7293C44.466 53.3763 44.325 53.0378 44.0741 52.7882C43.8231 52.5386 43.4828 52.3984 43.1279 52.3984H21.7188C21.3639 52.3984 21.0236 52.5386 20.7726 52.7882C20.5217 53.0378 20.3807 53.3763 20.3807 53.7293C20.3807 54.0822 20.5217 54.4207 20.7726 54.6703C21.0236 54.9199 21.3639 55.0601 21.7188 55.0601H43.1279Z" />
</svg>
