<svg viewBox="0 0 94 94" xmlns="http://www.w3.org/2000/svg">
<path d="M16.3333 7C15.808 7 15.2879 7.10347 14.8026 7.3045C14.3173 7.50553 13.8763 7.80018 13.5049 8.17164C13.1335 8.5431 12.8388 8.98408 12.6378 9.46941C12.4368 9.95474 12.3333 10.4749 12.3333 11.0002V20.3341H8.33333C8.15824 20.3341 7.98485 20.3686 7.82309 20.4356C7.66132 20.5026 7.51433 20.6008 7.39052 20.7246C7.26671 20.8484 7.1685 20.9954 7.10149 21.1572C7.03449 21.319 7 21.4924 7 21.6675V77.6706C7 78.0243 7.14048 78.3634 7.39052 78.6135C7.64057 78.8635 7.97971 79.004 8.33333 79.004H15.1068C15.4257 81.2238 16.5342 83.2542 18.2289 84.7229C19.9235 86.1915 22.0909 87 24.3333 87C26.5758 87 28.7431 86.1915 30.4378 84.7229C32.1325 83.2542 33.2409 81.2238 33.5599 79.004H60.4401C60.759 81.2238 61.8675 83.2542 63.5622 84.7229C65.2568 86.1915 67.4241 87 69.6666 87C71.9091 87 74.0764 86.1915 75.7711 84.7229C77.4657 83.2542 78.5742 81.2238 78.8932 79.004H85.6666C86.0202 79.004 86.3594 78.8635 86.6094 78.6135C86.8595 78.3634 86.9999 78.0243 86.9999 77.6706V51.0025C87.0022 50.7961 86.9565 50.5921 86.8665 50.4064L77.5332 31.7387C77.4219 31.516 77.2506 31.329 77.0385 31.1987C76.8265 31.0684 76.5822 31 76.3333 31.0013H60.3333V21.6675C60.3333 21.4924 60.2988 21.319 60.2318 21.1572C60.1648 20.9954 60.0666 20.8484 59.9428 20.7246C59.819 20.6008 59.672 20.5026 59.5102 20.4356C59.3484 20.3686 59.1751 20.3341 59 20.3341H55V11.0002C55 10.4749 54.8965 9.95474 54.6955 9.46941C54.4945 8.98408 54.1998 8.5431 53.8284 8.17164C53.457 7.80018 53.016 7.50553 52.5307 7.3045C52.0454 7.10347 51.5252 7 51 7H16.3333ZM16.3333 9.66681H28.3333V15.0005H15V11.0002C15 10.8251 15.0345 10.6517 15.1015 10.49C15.1685 10.3282 15.2667 10.1812 15.3905 10.0574C15.5143 9.93354 15.6613 9.83533 15.8231 9.76831C15.9848 9.7013 16.1582 9.66681 16.3333 9.66681ZM31 9.66681H36.3333V24.5104L34.4065 23.2249C34.1875 23.0787 33.93 23.0007 33.6666 23.0007C33.4033 23.0007 33.1458 23.0787 32.9267 23.2249L31 24.5104V9.66681ZM39 9.66681H51C51.1751 9.66681 51.3484 9.7013 51.5102 9.76831C51.672 9.83533 51.819 9.93354 51.9428 10.0574C52.0666 10.1812 52.1648 10.3282 52.2318 10.49C52.2988 10.6517 52.3333 10.8251 52.3333 11.0002V15.0005H39V9.66681ZM15 17.6673H28.3333V20.3341H15V17.6673ZM39 17.6673H52.3333V20.3341H39V17.6673ZM9.66666 23.0009H12.3333V45.6688C12.3333 46.7298 12.7548 47.7472 13.5049 48.4974C14.255 49.2476 15.2725 49.6691 16.3333 49.6691H51C52.0608 49.6691 53.0782 49.2476 53.8284 48.4974C54.5785 47.7472 55 46.7298 55 45.6688V23.0009H57.6666V55.0027H9.66666V23.0009ZM15 23.0009H28.3333V27.0011C28.3333 27.2425 28.3988 27.4794 28.5228 27.6865C28.6468 27.8936 28.8248 28.0631 29.0376 28.177C29.2504 28.2909 29.4902 28.3448 29.7313 28.3331C29.9724 28.3214 30.2058 28.2445 30.4066 28.1106L33.6666 25.9343L36.9267 28.108C37.1273 28.2418 37.3605 28.3187 37.6014 28.3305C37.8422 28.3423 38.0818 28.2886 38.2945 28.175C38.5073 28.0614 38.6852 27.8923 38.8095 27.6855C38.9337 27.4788 38.9995 27.2423 39 27.0011V23.0009H52.3333V45.6688C52.3333 46.0225 52.1928 46.3616 51.9428 46.6117C51.6927 46.8618 51.3536 47.0022 51 47.0022H16.3333C15.9797 47.0022 15.6406 46.8618 15.3905 46.6117C15.1405 46.3616 15 46.0225 15 45.6688V23.0009ZM47 32.3348V35.0016H49.6666V32.3348H47ZM60.3333 33.6682H75.5094L83.5094 49.6691H60.3333V33.6682ZM47 37.6684V41.6686H43V44.3354H48.3333C48.5084 44.3354 48.6818 44.3009 48.8435 44.2339C49.0053 44.1669 49.1523 44.0687 49.2761 43.9449C49.3999 43.8211 49.4981 43.6741 49.5651 43.5123C49.6321 43.3505 49.6666 43.1771 49.6666 43.002V37.6684H47ZM60.3333 52.3359H84.3333V76.3372H78.8932C78.5742 74.1174 77.4657 72.087 75.7711 70.6184C74.0764 69.1497 71.9091 68.3413 69.6666 68.3413C67.4241 68.3413 65.2568 69.1497 63.5622 70.6184C61.8675 72.087 60.759 74.1174 60.4401 76.3372H60.3333L60.3333 52.3359ZM63 55.0027V57.6695H68.3333V55.0027H63ZM9.66666 57.6695H57.6666V63.0031H9.66666V57.6695ZM9.66666 65.67H57.6666V76.3372H33.5599C33.2409 74.1174 32.1325 72.087 30.4378 70.6184C28.7431 69.1497 26.5758 68.3413 24.3333 68.3413C22.0909 68.3413 19.9235 69.1497 18.2289 70.6184C16.5342 72.087 15.4257 74.1174 15.1068 76.3372H9.66666V65.67ZM24.056 71.0094C24.954 70.9721 25.8503 71.1167 26.6911 71.4345C27.5318 71.7524 28.2996 72.2371 28.9482 72.8593C29.5969 73.4815 30.113 74.2285 30.4656 75.0554C30.8182 75.8822 31 76.7718 31 77.6706C30.9979 79.4382 30.2948 81.1327 29.045 82.3826C27.7952 83.6325 26.1008 84.3355 24.3333 84.3377C22.5896 84.3371 20.9155 83.6533 19.67 82.433C18.4244 81.2126 17.7066 79.5528 17.6703 77.8093C17.634 76.0659 18.2822 74.3777 19.4759 73.1065C20.6696 71.8354 22.3138 71.0826 24.056 71.0094ZM69.3893 71.0094C70.2873 70.9721 71.1836 71.1167 72.0244 71.4345C72.8651 71.7524 73.6329 72.2371 74.2815 72.8593C74.9302 73.4815 75.4463 74.2285 75.7989 75.0554C76.1515 75.8822 76.3333 76.7718 76.3333 77.6706C76.3311 79.4382 75.6281 81.1327 74.3783 82.3826C73.1285 83.6324 71.4341 84.3355 69.6666 84.3377C67.9229 84.3371 66.2488 83.6533 65.0033 82.433C63.7577 81.2126 63.0398 79.5528 63.0036 77.8093C62.9673 76.0659 63.6155 74.3777 64.8092 73.1065C66.0029 71.8354 67.6471 71.0826 69.3892 71.0094H69.3893ZM24.3333 73.6704C23.5422 73.6704 22.7688 73.905 22.111 74.3446C21.4532 74.7841 20.9406 75.4089 20.6378 76.1398C20.3351 76.8708 20.2558 77.6751 20.4102 78.451C20.5645 79.227 20.9455 79.9398 21.5049 80.4992C22.0643 81.0586 22.777 81.4396 23.553 81.594C24.3289 81.7483 25.1331 81.6691 25.864 81.3663C26.595 81.0636 27.2197 80.5509 27.6592 79.893C28.0987 79.2352 28.3333 78.4618 28.3333 77.6706C28.3333 77.1453 28.2299 76.6251 28.0288 76.1398C27.8278 75.6545 27.5332 75.2135 27.1617 74.842C26.7903 74.4706 26.3494 74.1759 25.864 73.9749C25.3787 73.7739 24.8586 73.6704 24.3333 73.6704ZM69.6666 73.6704C68.8755 73.6704 68.1021 73.905 67.4443 74.3446C66.7865 74.7841 66.2738 75.4089 65.9711 76.1398C65.6683 76.8707 65.5891 77.6751 65.7435 78.451C65.8978 79.227 66.2788 79.9398 66.8382 80.4992C67.3976 81.0587 68.1103 81.4396 68.8862 81.594C69.6622 81.7483 70.4664 81.6691 71.1973 81.3663C71.9282 81.0636 72.553 80.5509 72.9925 79.893C73.432 79.2352 73.6666 78.4618 73.6666 77.6706C73.6666 76.6097 73.2452 75.5922 72.495 74.842C71.7449 74.0919 70.7275 73.6704 69.6666 73.6704ZM24.278 76.3385C24.4576 76.3311 24.6368 76.36 24.8049 76.4236C24.9731 76.4871 25.1266 76.5841 25.2563 76.7085C25.386 76.8329 25.4892 76.9823 25.5597 77.1476C25.6303 77.313 25.6666 77.4909 25.6666 77.6706C25.6666 78.0243 25.5262 78.3634 25.2761 78.6135C25.0261 78.8635 24.6869 79.004 24.3333 79.004C23.9851 79.0031 23.651 78.866 23.4025 78.622C23.1541 78.378 23.0109 78.0465 23.0037 77.6983C22.9965 77.3501 23.1257 77.0129 23.3639 76.7588C23.602 76.5047 23.9301 76.3539 24.278 76.3385H24.278ZM69.6113 76.3385C69.7909 76.3311 69.9701 76.36 70.1382 76.4236C70.3063 76.4871 70.4599 76.5841 70.5896 76.7085C70.7193 76.8329 70.8225 76.9823 70.893 77.1476C70.9636 77.313 70.9999 77.4909 70.9999 77.6706C70.9999 78.0243 70.8595 78.3634 70.6094 78.6135C70.3594 78.8635 70.0202 79.004 69.6666 79.004C69.3184 79.0031 68.9844 78.8659 68.736 78.6219C68.4876 78.3778 68.3445 78.0463 68.3373 77.6982C68.3301 77.35 68.4594 77.0129 68.6975 76.7588C68.9356 76.5047 69.2637 76.3539 69.6116 76.3385H69.6113Z" />
</svg>
