<svg viewBox="0 0 25 25" xmlns="http://www.w3.org/2000/svg">
<path d="M12.5 0C10.0277 0 7.61099 0.733112 5.55538 2.10663C3.49976 3.48015 1.89761 5.43238 0.951511 7.71646C0.00541611 10.0005 -0.242126 12.5139 0.24019 14.9386C0.722505 17.3634 1.91301 19.5907 3.66117 21.3388C5.40933 23.087 7.63661 24.2775 10.0614 24.7598C12.4861 25.2421 14.9995 24.9946 17.2835 24.0485C19.5676 23.1024 21.5199 21.5002 22.8934 19.4446C24.2669 17.389 25 14.9723 25 12.5C24.9961 9.18599 23.6779 6.00884 21.3345 3.66548C18.9912 1.32213 15.814 0.00390963 12.5 0ZM17.3205 15.7136L15.7136 17.3205L12.5 14.1068L9.28637 17.3205L7.67955 15.7136L10.8932 12.5L7.67955 9.28636L9.28637 7.67954L12.5 10.8932L15.7136 7.67954L17.3205 9.28636L14.1068 12.5L17.3205 15.7136Z"/>
</svg>
