<svg viewBox="0 0 22 18" xmlns="http://www.w3.org/2000/svg">
<path d="M8.56268 11.6372C8.56389 11.6362 8.56462 11.6349 8.56534 11.6337L19.9307 0.929299C20.1569 0.715772 20.1569 0.368648 19.9304 0.154893C19.711 -0.0515548 19.3282 -0.0517831 19.1085 0.155121L15.8021 3.26987C14.1604 2.41577 12.5172 1.97798 10.9109 1.97798C4.82878 1.97798 0.292347 8.08051 0.102015 8.34017C-0.0340051 8.52606 -0.0340051 8.77567 0.102015 8.96157C0.185422 9.0753 2.05455 11.6054 4.99463 13.4491L1.89113 16.3724C1.66492 16.5862 1.66492 16.9329 1.89137 17.1468C2.00121 17.2498 2.14741 17.3069 2.3021 17.3069C2.45752 17.3069 2.60324 17.2498 2.71307 17.1464L8.55904 11.6401C8.56025 11.6392 8.56146 11.6385 8.56268 11.6372ZM5.83499 12.6575C3.56605 11.2818 1.89501 9.37789 1.30389 8.65121C2.25482 7.48652 6.1742 3.07256 10.9109 3.07256C12.2243 3.07256 13.5787 3.41101 14.9462 4.07648L13.6408 5.3058C12.8605 4.73853 11.9115 4.42772 10.9109 4.42772C8.43878 4.42772 6.42708 6.32228 6.42708 8.65075C6.42708 9.59415 6.75707 10.4878 7.3591 11.222L5.83499 12.6575ZM7.5892 8.65075C7.5892 6.92587 9.07936 5.5223 10.9107 5.5223C11.6005 5.5223 12.257 5.72144 12.8106 6.08729L8.18856 10.4405C7.80062 9.91936 7.5892 9.30115 7.5892 8.65075Z"/>
<path d="M10.911 11.7791C10.5805 11.7791 10.2582 11.7323 9.95081 11.6448L9.05273 12.4905C9.62882 12.7394 10.2582 12.8741 10.911 12.8741C13.3828 12.8741 15.3948 10.9793 15.3948 8.65087C15.3948 8.0361 15.252 7.44302 14.9877 6.90063L14.0894 7.74675C14.1827 8.0361 14.2324 8.3396 14.2324 8.65087C14.2324 10.3758 12.7423 11.7791 10.911 11.7791Z"/>
<path d="M21.7196 8.33978C21.6437 8.23655 20.0997 6.15609 17.6426 4.40015L16.811 5.18346C18.658 6.47924 20.001 8.01526 20.5182 8.65059C19.5673 9.81528 15.6486 14.2292 10.9109 14.2292C9.90569 14.2292 8.87572 14.0292 7.83484 13.6378L6.95374 14.4679C8.2829 15.0317 9.60892 15.3238 10.9109 15.3238C16.9889 15.3238 21.5295 9.22152 21.7198 8.96163C21.8558 8.77596 21.8558 8.52635 21.7196 8.33978Z"/>
</svg>
