<svg viewBox="0 0 70 99" xmlns="http://www.w3.org/2000/svg">
<path d="M52.199 7H17.5862C14.7824 7.00478 12.0948 8.12068 10.1123 10.1032C8.12972 12.0858 7.01381 14.7734 7.00903 17.5771C7.00903 17.8167 7.1042 18.0464 7.27359 18.2158C7.44298 18.3852 7.67273 18.4804 7.91229 18.4804C8.15185 18.4804 8.38159 18.3852 8.55099 18.2158C8.72038 18.0464 8.81555 17.8167 8.81555 17.5771C8.81555 15.2502 9.7393 13.0184 11.3839 11.3722C13.0284 9.72593 15.2592 8.79988 17.5862 8.79748H18.2726C20.5595 8.90904 22.7153 9.8979 24.2916 11.5584C25.868 13.2188 26.7435 15.4231 26.7362 17.7126V39.8244L25.8329 38.9211C25.6966 38.7713 25.5307 38.6513 25.3457 38.5689C25.1607 38.4865 24.9606 38.4434 24.758 38.4424C24.5631 38.4422 24.3703 38.4823 24.1916 38.56C24.0129 38.6377 23.8521 38.7514 23.7193 38.894L21.416 41.3509L19.1217 38.903C18.9876 38.7589 18.8255 38.6438 18.6454 38.5646C18.4652 38.4853 18.2707 38.4438 18.0739 38.4424C17.8786 38.4425 17.6852 38.4817 17.5053 38.5577C17.3253 38.6337 17.1624 38.745 17.0262 38.885L14.6596 41.3689L12.2931 38.885C12.1568 38.745 11.9939 38.6337 11.814 38.5577C11.634 38.4817 11.4407 38.4425 11.2453 38.4424C11.0492 38.4426 10.8551 38.4828 10.675 38.5604C10.4948 38.6381 10.3324 38.7516 10.1975 38.894L8.80651 40.3934V25.038C8.80651 24.7985 8.71135 24.5687 8.54196 24.3993C8.37256 24.2299 8.14282 24.1348 7.90326 24.1348C7.6637 24.1348 7.43395 24.2299 7.26456 24.3993C7.09516 24.5687 7 24.7985 7 25.038V42.6696C6.99983 42.8505 7.05397 43.0273 7.15543 43.1771C7.25689 43.3269 7.40099 43.4427 7.56905 43.5096C7.67505 43.553 7.78873 43.5746 7.90326 43.5729C8.02493 43.5724 8.14525 43.5474 8.25701 43.4992C8.36877 43.4511 8.46965 43.3809 8.5536 43.2929L11.2634 40.4115L13.6299 42.8864C13.9038 43.167 14.2767 43.3291 14.6686 43.338C14.8634 43.3376 15.0561 43.2973 15.2347 43.2197C15.4134 43.142 15.5742 43.0286 15.7074 42.8864L18.0739 40.4115L20.3772 42.8683C20.5113 43.0124 20.6734 43.1276 20.8536 43.2068C21.0337 43.286 21.2282 43.3276 21.425 43.329C21.6218 43.3276 21.8163 43.286 21.9964 43.2068C22.1766 43.1276 22.3387 43.0124 22.4728 42.8683L24.7851 40.4115L26.7271 42.4348V90.0906C26.727 90.2715 26.7811 90.4483 26.8826 90.5981C26.984 90.7478 27.1281 90.8637 27.2962 90.9306C27.4022 90.974 27.5159 90.9955 27.6304 90.9938C27.7527 90.9922 27.8734 90.9658 27.9852 90.9161C28.097 90.8664 28.1976 90.7945 28.2807 90.7048L30.9905 87.7963L33.3751 90.3435C33.641 90.6094 34.0017 90.7587 34.3777 90.7587C34.7538 90.7587 35.1144 90.6094 35.3803 90.3435L37.792 87.8324L40.1766 90.3796C40.4426 90.6455 40.8032 90.7948 41.1792 90.7948C41.5553 90.7948 41.9159 90.6455 42.1819 90.3796L44.5664 87.8324L46.942 90.3796C47.2095 90.646 47.5716 90.7956 47.9491 90.7956C48.3267 90.7956 48.6888 90.646 48.9563 90.3796L51.3318 87.8324L53.7074 90.3706C53.8393 90.5036 53.9961 90.6092 54.169 90.6812C54.3419 90.7533 54.5273 90.7903 54.7145 90.7903C54.9018 90.7903 55.0872 90.7533 55.2601 90.6812C55.4329 90.6092 55.5898 90.5036 55.7217 90.3706L58.0972 87.8324L60.807 90.7409C60.9307 90.8742 61.0917 90.967 61.2689 91.0073C61.4462 91.0476 61.6315 91.0335 61.8006 90.9668C61.9687 90.8998 62.1127 90.784 62.2142 90.6342C62.3157 90.4844 62.3698 90.3076 62.3696 90.1267V17.7217C62.3777 14.9697 61.3255 12.3204 59.4316 10.3239C57.5376 8.32737 54.9475 7.137 52.199 7ZM59.0818 86.2246C58.8132 85.9604 58.4515 85.8123 58.0747 85.8123C57.6979 85.8123 57.3361 85.9604 57.0675 86.2246L54.71 88.7357L52.3345 86.1976C52.067 85.9311 51.7048 85.7816 51.3273 85.7816C50.9498 85.7816 50.5877 85.9311 50.3202 86.1976L47.9446 88.7357L45.5329 86.2337C45.2655 85.9673 44.9033 85.8177 44.5258 85.8177C44.1483 85.8177 43.7861 85.9673 43.5187 86.2337L41.1792 88.7357L38.8037 86.1976C38.6734 86.0603 38.5165 85.951 38.3426 85.8765C38.1686 85.8019 37.9813 85.7636 37.792 85.764C37.604 85.7633 37.418 85.8014 37.2454 85.876C37.0729 85.9506 36.9176 86.0601 36.7894 86.1976L34.4138 88.7357L32.0383 86.1976C31.7839 85.9442 31.4398 85.8014 31.0808 85.8001C30.8905 85.7921 30.7008 85.8269 30.5257 85.902C30.3507 85.977 30.1946 86.0904 30.0692 86.2337L28.5517 87.8324V81.6271H30.0511C30.2907 81.6271 30.5204 81.5319 30.6898 81.3625C30.8592 81.1931 30.9544 80.9634 30.9544 80.7238C30.9544 80.4843 30.8592 80.2545 30.6898 80.0851C30.5204 79.9157 30.2907 79.8206 30.0511 79.8206H28.5517V17.7217C28.554 15.9583 28.1217 14.2215 27.293 12.665C26.4643 11.1084 25.2648 9.78011 23.8006 8.79748H52.1086C54.3955 8.90904 56.5513 9.8979 58.1276 11.5584C59.704 13.2188 60.5795 15.4231 60.5722 17.7126V79.8206H59.8586C59.619 79.8206 59.3893 79.9157 59.2199 80.0851C59.0505 80.2545 58.9553 80.4843 58.9553 80.7238C58.9553 80.9634 59.0505 81.1931 59.2199 81.3625C59.3893 81.5319 59.619 81.6271 59.8586 81.6271H60.5722V87.8324L59.0818 86.2246ZM56.0559 28.8949H33.059C32.3403 28.8949 31.651 29.1804 31.1429 29.6886C30.6347 30.1968 30.3492 30.886 30.3492 31.6047C30.3492 32.3234 30.6347 33.0126 31.1429 33.5208C31.651 34.029 32.3403 34.3145 33.059 34.3145H56.0559C56.7746 34.3145 57.4638 34.029 57.972 33.5208C58.4802 33.0126 58.7656 32.3234 58.7656 31.6047C58.7656 30.886 58.4802 30.1968 57.972 29.6886C57.4638 29.1804 56.7746 28.8949 56.0559 28.8949ZM56.0559 32.508H33.059C32.8194 32.508 32.5897 32.4128 32.4203 32.2434C32.2509 32.074 32.1557 31.8443 32.1557 31.6047C32.1557 31.3652 32.2509 31.1354 32.4203 30.966C32.5897 30.7966 32.8194 30.7015 33.059 30.7015H56.0559C56.2954 30.7015 56.5252 30.7966 56.6946 30.966C56.864 31.1354 56.9591 31.3652 56.9591 31.6047C56.9591 31.8443 56.864 32.074 56.6946 32.2434C56.5252 32.4128 56.2954 32.508 56.0559 32.508ZM56.0559 70.3364H33.059C32.3403 70.3364 31.651 70.6219 31.1429 71.13C30.6347 71.6382 30.3492 72.3275 30.3492 73.0461C30.3492 73.7648 30.6347 74.454 31.1429 74.9622C31.651 75.4704 32.3403 75.7559 33.059 75.7559H56.0559C56.7746 75.7559 57.4638 75.4704 57.972 74.9622C58.4802 74.454 58.7656 73.7648 58.7656 73.0461C58.7656 72.3275 58.4802 71.6382 57.972 71.13C57.4638 70.6219 56.7746 70.3364 56.0559 70.3364ZM56.0559 73.9494H33.059C32.8194 73.9494 32.5897 73.8542 32.4203 73.6848C32.2509 73.5154 32.1557 73.2857 32.1557 73.0461C32.1557 72.8066 32.2509 72.5768 32.4203 72.4074C32.5897 72.238 32.8194 72.1429 33.059 72.1429H56.0559C56.2954 72.1429 56.5252 72.238 56.6946 72.4074C56.864 72.5768 56.9591 72.8066 56.9591 73.0461C56.9591 73.2857 56.864 73.5154 56.6946 73.6848C56.5252 73.8542 56.2954 73.9494 56.0559 73.9494ZM32.1647 40.0773C32.1647 39.8377 32.2599 39.608 32.4293 39.4386C32.5987 39.2692 32.8284 39.174 33.068 39.174H45.2168C45.4564 39.174 45.6861 39.2692 45.8555 39.4386C46.0249 39.608 46.1201 39.8377 46.1201 40.0773C46.1201 40.3168 46.0249 40.5466 45.8555 40.716C45.6861 40.8854 45.4564 40.9805 45.2168 40.9805H33.068C32.8284 40.9805 32.5987 40.8854 32.4293 40.716C32.2599 40.5466 32.1647 40.3168 32.1647 40.0773ZM32.1647 46.4001C32.1647 46.1605 32.2599 45.9308 32.4293 45.7614C32.5987 45.592 32.8284 45.4968 33.068 45.4968H45.2168C45.4564 45.4968 45.6861 45.592 45.8555 45.7614C46.0249 45.9308 46.1201 46.1605 46.1201 46.4001C46.1201 46.6396 46.0249 46.8694 45.8555 47.0388C45.6861 47.2082 45.4564 47.3033 45.2168 47.3033H33.068C32.8284 47.3033 32.5987 47.2082 32.4293 47.0388C32.2599 46.8694 32.1647 46.6396 32.1647 46.4001ZM32.1647 52.7229C32.1647 52.4833 32.2599 52.2536 32.4293 52.0842C32.5987 51.9148 32.8284 51.8196 33.068 51.8196H45.2168C45.4564 51.8196 45.6861 51.9148 45.8555 52.0842C46.0249 52.2536 46.1201 52.4833 46.1201 52.7229C46.1201 52.9624 46.0249 53.1922 45.8555 53.3616C45.6861 53.531 45.4564 53.6261 45.2168 53.6261H33.068C32.8284 53.6261 32.5987 53.531 32.4293 53.3616C32.2599 53.1922 32.1647 52.9624 32.1647 52.7229ZM32.1647 59.0457C32.1647 58.8061 32.2599 58.5764 32.4293 58.407C32.5987 58.2376 32.8284 58.1424 33.068 58.1424H45.2168C45.4564 58.1424 45.6861 58.2376 45.8555 58.407C46.0249 58.5764 46.1201 58.8061 46.1201 59.0457C46.1201 59.2852 46.0249 59.515 45.8555 59.6844C45.6861 59.8538 45.4564 59.9489 45.2168 59.9489H33.068C32.8284 59.9489 32.5987 59.8538 32.4293 59.6844C32.2599 59.515 32.1647 59.2852 32.1647 59.0457ZM32.1647 65.3685C32.1647 65.1289 32.2599 64.8991 32.4293 64.7298C32.5987 64.5604 32.8284 64.4652 33.068 64.4652H45.2168C45.4564 64.4652 45.6861 64.5604 45.8555 64.7298C46.0249 64.8991 46.1201 65.1289 46.1201 65.3685C46.1201 65.608 46.0249 65.8378 45.8555 66.0071C45.6861 66.1765 45.4564 66.2717 45.2168 66.2717H33.068C32.8284 66.2717 32.5987 66.1765 32.4293 66.0071C32.2599 65.8378 32.1647 65.608 32.1647 65.3685ZM51.1331 40.0773C51.1331 39.8377 51.2283 39.608 51.3977 39.4386C51.5671 39.2692 51.7968 39.174 52.0364 39.174H56.0559C56.2954 39.174 56.5252 39.2692 56.6946 39.4386C56.864 39.608 56.9591 39.8377 56.9591 40.0773C56.9591 40.3168 56.864 40.5466 56.6946 40.716C56.5252 40.8854 56.2954 40.9805 56.0559 40.9805H52.0364C51.7968 40.9805 51.5671 40.8854 51.3977 40.716C51.2283 40.5466 51.1331 40.3168 51.1331 40.0773ZM51.1331 46.4001C51.1331 46.1605 51.2283 45.9308 51.3977 45.7614C51.5671 45.592 51.7968 45.4968 52.0364 45.4968H56.0559C56.2954 45.4968 56.5252 45.592 56.6946 45.7614C56.864 45.9308 56.9591 46.1605 56.9591 46.4001C56.9591 46.6396 56.864 46.8694 56.6946 47.0388C56.5252 47.2082 56.2954 47.3033 56.0559 47.3033H52.0364C51.7968 47.3033 51.5671 47.2082 51.3977 47.0388C51.2283 46.8694 51.1331 46.6396 51.1331 46.4001ZM51.1331 52.7229C51.1331 52.4833 51.2283 52.2536 51.3977 52.0842C51.5671 51.9148 51.7968 51.8196 52.0364 51.8196H56.0559C56.2954 51.8196 56.5252 51.9148 56.6946 52.0842C56.864 52.2536 56.9591 52.4833 56.9591 52.7229C56.9591 52.9624 56.864 53.1922 56.6946 53.3616C56.5252 53.531 56.2954 53.6261 56.0559 53.6261H52.0364C51.7968 53.6261 51.5671 53.531 51.3977 53.3616C51.2283 53.1922 51.1331 52.9624 51.1331 52.7229ZM51.1331 59.0457C51.1331 58.8061 51.2283 58.5764 51.3977 58.407C51.5671 58.2376 51.7968 58.1424 52.0364 58.1424H56.0559C56.2954 58.1424 56.5252 58.2376 56.6946 58.407C56.864 58.5764 56.9591 58.8061 56.9591 59.0457C56.9591 59.2852 56.864 59.515 56.6946 59.6844C56.5252 59.8538 56.2954 59.9489 56.0559 59.9489H52.0364C51.7968 59.9489 51.5671 59.8538 51.3977 59.6844C51.2283 59.515 51.1331 59.2852 51.1331 59.0457ZM51.1331 65.3685C51.1331 65.1289 51.2283 64.8991 51.3977 64.7298C51.5671 64.5604 51.7968 64.4652 52.0364 64.4652H56.0559C56.2954 64.4652 56.5252 64.5604 56.6946 64.7298C56.864 64.8991 56.9591 65.1289 56.9591 65.3685C56.9591 65.608 56.864 65.8378 56.6946 66.0071C56.5252 66.1765 56.2954 66.2717 56.0559 66.2717H52.0364C51.7968 66.2717 51.5671 66.1765 51.3977 66.0071C51.2283 65.8378 51.1331 65.608 51.1331 65.3685ZM41.378 25.4355H47.7008C48.4194 25.4355 49.1087 25.15 49.6169 24.6418C50.125 24.1336 50.4105 23.4444 50.4105 22.7257C50.4105 22.007 50.125 21.3178 49.6169 20.8096C49.1087 20.3014 48.4194 20.0159 47.7008 20.0159H41.378C40.6593 20.0159 39.97 20.3014 39.4619 20.8096C38.9537 21.3178 38.6682 22.007 38.6682 22.7257C38.6682 23.4444 38.9537 24.1336 39.4619 24.6418C39.97 25.15 40.6593 25.4355 41.378 25.4355ZM41.378 21.8224H47.7008C47.9403 21.8224 48.1701 21.9176 48.3394 22.087C48.5088 22.2564 48.604 22.4861 48.604 22.7257C48.604 22.9653 48.5088 23.195 48.3394 23.3644C48.1701 23.5338 47.9403 23.629 47.7008 23.629H41.378C41.1384 23.629 40.9086 23.5338 40.7393 23.3644C40.5699 23.195 40.4747 22.9653 40.4747 22.7257C40.4747 22.4861 40.5699 22.2564 40.7393 22.087C40.9086 21.9176 41.1384 21.8224 41.378 21.8224ZM7.0542 21.3347C7.0542 21.0951 7.14936 20.8654 7.31875 20.696C7.48815 20.5266 7.71789 20.4314 7.95745 20.4314C8.1361 20.4314 8.31074 20.4844 8.45928 20.5837C8.60781 20.6829 8.72359 20.824 8.79195 20.989C8.86032 21.1541 8.87821 21.3357 8.84335 21.5109C8.8085 21.6861 8.72247 21.8471 8.59615 21.9734C8.46983 22.0997 8.30888 22.1857 8.13367 22.2206C7.95845 22.2554 7.77684 22.2375 7.61179 22.1692C7.44674 22.1008 7.30567 21.985 7.20642 21.8365C7.10717 21.688 7.0542 21.5133 7.0542 21.3347ZM10.6672 30.7015C10.4277 30.7015 10.1979 30.6063 10.0285 30.4369C9.85913 30.2675 9.76397 30.0378 9.76397 29.7982C9.76397 29.5586 9.85913 29.3289 10.0285 29.1595C10.1979 28.9901 10.4277 28.8949 10.6672 28.8949H12.4737C12.7133 28.8949 12.943 28.9901 13.1124 29.1595C13.2818 29.3289 13.377 29.5586 13.377 29.7982C13.377 30.0378 13.2818 30.2675 13.1124 30.4369C12.943 30.6063 12.7133 30.7015 12.4737 30.7015H10.6672ZM16.99 30.7015C16.7505 30.7015 16.5207 30.6063 16.3513 30.4369C16.1819 30.2675 16.0868 30.0378 16.0868 29.7982C16.0868 29.5586 16.1819 29.3289 16.3513 29.1595C16.5207 28.9901 16.7505 28.8949 16.99 28.8949H18.7965C19.0361 28.8949 19.2658 28.9901 19.4352 29.1595C19.6046 29.3289 19.6998 29.5586 19.6998 29.7982C19.6998 30.0378 19.6046 30.2675 19.4352 30.4369C19.2658 30.6063 19.0361 30.7015 18.7965 30.7015H16.99ZM23.3128 30.7015C23.0733 30.7015 22.8435 30.6063 22.6741 30.4369C22.5047 30.2675 22.4096 30.0378 22.4096 29.7982C22.4096 29.5586 22.5047 29.3289 22.6741 29.1595C22.8435 28.9901 23.0733 28.8949 23.3128 28.8949H25.1193C25.3589 28.8949 25.5886 28.9901 25.758 29.1595C25.9274 29.3289 26.0226 29.5586 26.0226 29.7982C26.0226 30.0378 25.9274 30.2675 25.758 30.4369C25.5886 30.6063 25.3589 30.7015 25.1193 30.7015H23.3128ZM37.2772 80.7238C37.2772 80.9634 37.182 81.1931 37.0126 81.3625C36.8432 81.5319 36.6135 81.6271 36.3739 81.6271H34.5674C34.3278 81.6271 34.0981 81.5319 33.9287 81.3625C33.7593 81.1931 33.6641 80.9634 33.6641 80.7238C33.6641 80.4843 33.7593 80.2545 33.9287 80.0851C34.0981 79.9157 34.3278 79.8206 34.5674 79.8206H36.3739C36.6135 79.8206 36.8432 79.9157 37.0126 80.0851C37.182 80.2545 37.2772 80.4843 37.2772 80.7238ZM56.2456 80.7238C56.2456 80.9634 56.1504 81.1931 55.981 81.3625C55.8116 81.5319 55.5819 81.6271 55.3423 81.6271H53.5358C53.2962 81.6271 53.0665 81.5319 52.8971 81.3625C52.7277 81.1931 52.6325 80.9634 52.6325 80.7238C52.6325 80.4843 52.7277 80.2545 52.8971 80.0851C53.0665 79.9157 53.2962 79.8206 53.5358 79.8206H55.3423C55.5819 79.8206 55.8116 79.9157 55.981 80.0851C56.1504 80.2545 56.2456 80.4843 56.2456 80.7238ZM49.9228 80.7238C49.9228 80.9634 49.8276 81.1931 49.6582 81.3625C49.4888 81.5319 49.2591 81.6271 49.0195 81.6271H47.213C46.9734 81.6271 46.7437 81.5319 46.5743 81.3625C46.4049 81.1931 46.3097 80.9634 46.3097 80.7238C46.3097 80.4843 46.4049 80.2545 46.5743 80.0851C46.7437 79.9157 46.9734 79.8206 47.213 79.8206H49.0195C49.2591 79.8206 49.4888 79.9157 49.6582 80.0851C49.8276 80.2545 49.9228 80.4843 49.9228 80.7238ZM43.6 80.7238C43.6 80.9634 43.5048 81.1931 43.3354 81.3625C43.166 81.5319 42.9363 81.6271 42.6967 81.6271H40.8902C40.6506 81.6271 40.4209 81.5319 40.2515 81.3625C40.0821 81.1931 39.9869 80.9634 39.9869 80.7238C39.9869 80.4843 40.0821 80.2545 40.2515 80.0851C40.4209 79.9157 40.6506 79.8206 40.8902 79.8206H42.6967C42.9363 79.8206 43.166 79.9157 43.3354 80.0851C43.5048 80.2545 43.6 80.4843 43.6 80.7238Z" />
</svg>
