<svg viewBox="0 0 103 52" fill="none" xmlns="http://www.w3.org/2000/svg">
<g clip-path="url(#clip0)">
<path d="M0 44.0275H103V41.8856H47.8299V20.1098H60.0241L59.5506 18.9199H34.0966L33.623 20.1098H45.4621H46.1724V41.8856H0V44.0275ZM42.0287 3.09382H40.0161L34.3333 18.3249H37.1747L42.0287 3.09382ZM40.9632 18.3249H59.3138L53.631 3.09382H43.2126L40.9632 18.3249ZM53.3943 2.49886L52.8023 0.951945H47.3563C47.3563 0.356979 47.3563 0 47.3563 0H46.5276C46.5276 0 46.5276 0.356979 46.5276 0.951945H40.9632L40.2529 2.49886H53.3943Z" fill="#6BB431"/>
<path d="M10.0632 35.1031C10.0632 33.6752 9.11605 32.9612 7.1034 32.9612H2.84134V37.364H7.1034C9.11605 37.364 10.0632 36.65 10.0632 35.1031ZM2.84134 30.9383H6.51145C7.45858 30.9383 8.05053 30.7003 8.52409 30.3434C8.99766 29.9864 9.23444 29.5104 9.23444 28.7964C9.23444 28.0825 8.99766 27.6065 8.52409 27.2495C8.05053 26.8926 7.34019 26.6546 6.51145 26.6546H2.84134V30.9383ZM12.1942 32.9612C12.6678 33.5562 12.9046 34.3891 12.9046 35.3411C12.9046 36.65 12.431 37.7209 11.4839 38.4349C10.5367 39.1489 9.11605 39.5058 7.2218 39.5058H0.118347V24.5127H6.74823C8.4057 24.5127 9.708 24.8697 10.6551 25.4646C11.6023 26.1786 12.0758 27.1305 12.0758 28.3205C12.0758 29.1534 11.839 29.7484 11.4839 30.3434C11.2471 30.9383 10.6551 31.4143 9.94478 31.6523C10.8919 31.8903 11.6023 32.3662 12.1942 32.9612Z" fill="#F2F3F5"/>
<path d="M21.4289 37.2449C21.9024 36.8879 22.2576 36.5309 22.4944 35.9359V34.627H19.7714C18.2323 34.627 17.522 35.103 17.522 36.1739C17.522 36.6499 17.7587 37.0069 18.1139 37.3639C18.4691 37.6018 19.061 37.8398 19.7714 37.8398C20.3633 37.7208 20.9553 37.4829 21.4289 37.2449ZM23.9151 29.1533C24.8622 29.9863 25.2174 31.1762 25.2174 32.8421V39.5057H22.7312V38.0778C22.376 38.5538 21.9024 38.9108 21.3105 39.2678C20.7185 39.5057 20.0082 39.6247 19.1794 39.6247C18.3507 39.6247 17.522 39.5057 16.93 39.1488C16.338 38.9108 15.7461 38.4348 15.3909 37.9588C15.0357 37.4829 14.9174 36.8879 14.9174 36.1739C14.9174 35.103 15.2725 34.27 16.1013 33.6751C16.8116 33.0801 18.1139 32.7231 19.653 32.7231H22.4944V32.6041C22.4944 31.7712 22.2576 31.1762 21.784 30.7002C21.3105 30.2243 20.6001 30.1053 19.653 30.1053C19.061 30.1053 18.3507 30.2243 17.7587 30.4623C17.1668 30.7002 16.5748 30.9382 16.2197 31.2952L15.1541 29.3913C15.7461 28.9154 16.4564 28.5584 17.2852 28.3204C18.1139 28.0824 19.061 27.9634 20.0082 27.9634C21.6656 27.8444 22.9679 28.3204 23.9151 29.1533Z" fill="#F2F3F5"/>
<path d="M39.7793 39.5059V31.8903L35.8724 38.3159H34.6885L30.9 31.8903V39.5059H28.5322V28.0825H31.3735L35.3988 35.2221L39.6609 28.0825H42.1471V39.5059H39.7793Z" fill="#F2F3F5"/>
<path d="M55.2885 38.6727C54.1046 37.9588 53.1575 37.1258 52.4472 35.9359C51.7368 34.746 51.3817 33.437 51.3817 32.0091C51.3817 30.5812 51.7368 29.1533 52.4472 28.0823C53.1575 26.8924 54.1046 25.9405 55.2885 25.3455C56.4725 24.6315 57.8931 24.3936 59.4322 24.3936C60.6161 24.3936 61.8 24.6315 62.7472 24.9885C63.8127 25.4645 64.6414 26.0595 65.3518 26.8924L63.5759 28.5583C62.5104 27.3684 61.2081 26.7734 59.5506 26.7734C58.4851 26.7734 57.6564 27.0114 56.8276 27.4874C55.9989 27.9633 55.4069 28.5583 54.9334 29.3913C54.4598 30.2242 54.223 31.0572 54.223 32.1281C54.223 33.199 54.4598 34.032 54.9334 34.865C55.4069 35.6979 55.9989 36.2929 56.8276 36.7688C57.6564 37.2448 58.6035 37.4828 59.5506 37.4828C61.0897 37.4828 62.5104 36.8878 63.5759 35.6979L65.3518 37.3638C64.6414 38.1968 63.8127 38.7917 62.7472 39.2677C61.6817 39.7437 60.6161 39.8627 59.4322 39.8627C57.8931 39.7437 56.4725 39.3867 55.2885 38.6727Z" fill="#F2F3F5"/>
<path d="M75.4149 36.0551C75.4149 35.5791 75.2965 35.2221 74.9414 34.9841C74.5862 34.7461 74.1126 34.6271 73.2839 34.6271H70.0873V37.602H73.1655C74.7046 37.602 75.4149 37.007 75.4149 36.0551ZM70.2057 32.8422H73.0471C74.4678 32.8422 75.1781 32.3663 75.1781 31.4143C75.1781 30.4624 74.4678 29.9864 73.0471 29.9864H70.2057V32.8422ZM78.0195 36.293C78.0195 37.364 77.6644 38.0779 76.8356 38.6729C76.1253 39.2679 74.9414 39.5059 73.4023 39.5059H67.6011V28.0825H73.1655C74.5862 28.0825 75.6517 28.3205 76.4804 28.7965C77.3092 29.2725 77.6644 29.9864 77.6644 30.9384C77.6644 31.5333 77.546 32.0093 77.1908 32.4853C76.8356 32.9612 76.4804 33.1992 75.8885 33.4372C77.3092 33.9132 78.0195 34.8651 78.0195 36.293Z" fill="#F2F3F5"/>
<path d="M83.5838 30.8192C82.9918 31.2952 82.6367 32.0091 82.5183 32.8421H89.0298C88.9114 32.0091 88.5562 31.2952 87.9643 30.8192C87.3723 30.3432 86.662 30.1053 85.8332 30.1053C84.8861 30.1053 84.1757 30.3432 83.5838 30.8192ZM91.516 34.627H82.5183C82.6367 35.4599 83.1102 36.1739 83.7022 36.6499C84.4125 37.1259 85.2413 37.3638 86.1884 37.3638C87.4907 37.3638 88.4378 37.0069 89.2665 36.1739L90.6872 37.8398C90.2137 38.4348 89.5033 38.9107 88.793 39.2677C87.9642 39.6247 87.1355 39.7437 86.1884 39.7437C84.8861 39.7437 83.8206 39.5057 82.8734 39.0297C81.9263 38.5538 81.216 37.8398 80.624 36.8879C80.1505 35.9359 79.7953 34.984 79.7953 33.794C79.7953 32.7231 80.0321 31.6522 80.5056 30.8192C80.9792 29.8673 81.6895 29.2723 82.6367 28.6773C83.5838 28.2014 84.5309 27.9634 85.7148 27.9634C86.7803 27.9634 87.8459 28.2014 88.6746 28.6773C89.5033 29.1533 90.2137 29.8673 90.6872 30.8192C91.1608 31.7712 91.3976 32.7231 91.3976 33.913C91.516 34.032 91.516 34.27 91.516 34.627Z" fill="#F2F3F5"/>
<path d="M103 30.3434H99.0931V39.5059H96.3701V30.3434H92.3448V28.0825H103V30.3434Z" fill="#F2F3F5"/>
<path d="M3.55183 48.1921H1.3024V51.9999H0.710449V47.5972H3.55183V48.1921Z" fill="#F2F3F5"/>
<path d="M6.0379 47.5972H6.62986V50.929L9.23445 47.5972H9.82641V51.9999H9.23445V48.6681L6.62986 51.9999H6.0379V47.5972Z" fill="#F2F3F5"/>
<path d="M16.6931 47.5972V51.9999H16.1012V48.1921H13.4966V51.9999H12.9046V47.5972H16.6931Z" fill="#F2F3F5"/>
<path d="M22.9677 51.4049V51.9999H19.7712V47.5972H22.8493V48.1921H20.3631V49.5011H22.6126V49.977H20.3631V51.4049H22.9677Z" fill="#F2F3F5"/>
<path d="M28.2955 49.858C28.5323 49.739 28.6507 49.5011 28.6507 49.1441C28.6507 48.7871 28.5323 48.5491 28.2955 48.4301C28.0587 48.3111 27.8219 48.1921 27.3483 48.1921H26.2828V50.096H27.3483C27.8219 50.096 28.0587 49.977 28.2955 49.858ZM28.769 48.0731C29.1242 48.3111 29.2426 48.6681 29.2426 49.1441C29.2426 49.62 29.1242 49.977 28.769 50.215C28.4139 50.453 27.9403 50.572 27.4667 50.572H26.4012V51.8809H25.8093V47.5972H27.5851C27.9403 47.5972 28.4139 47.7162 28.769 48.0731Z" fill="#F2F3F5"/>
<path d="M35.9907 51.9999V48.7871L34.3333 51.4049H34.0965L32.439 48.7871V51.9999H31.847V47.5972H32.439L34.2149 50.691L36.1091 47.5972H36.5827V51.9999H35.9907Z" fill="#F2F3F5"/>
<path d="M42.2655 50.334L41.3184 48.1921L40.3713 50.334H42.2655ZM42.5023 50.929H40.1345L39.6609 51.9999H39.069L41.0816 47.5972H41.6736L43.6862 51.9999H42.9759L42.5023 50.929Z" fill="#F2F3F5"/>
<path d="M48.7769 49.858C49.0137 49.739 49.1321 49.5011 49.1321 49.1441C49.1321 48.7871 49.0137 48.5491 48.7769 48.4301C48.5401 48.3111 48.3033 48.1921 47.8298 48.1921H46.7643V50.096H47.8298C48.1849 50.096 48.5401 49.977 48.7769 49.858ZM49.2505 48.0731C49.6056 48.3111 49.724 48.6681 49.724 49.1441C49.724 49.62 49.6056 49.977 49.2505 50.215C48.8953 50.453 48.4217 50.572 47.9482 50.572H46.8826V51.8809H46.1723V47.5972H47.9482C48.4217 47.5972 48.8953 47.7162 49.2505 48.0731Z" fill="#F2F3F5"/>
<path d="M53.8678 50.096H52.9206V51.9999H52.3287V47.5972H52.9206V49.5011H53.8678L55.2884 47.5972H55.9988L54.3413 49.739L55.9988 51.9999H55.2884L53.8678 50.096Z" fill="#F2F3F5"/>
<path d="M61.6815 51.4049V51.9999H58.485V47.5972H61.6815V48.1921H59.1953V49.5011H61.3264V49.977H59.1953V51.4049H61.6815Z" fill="#F2F3F5"/>
<path d="M67.4828 48.1921H65.9437V51.9999H65.3518V48.1921H63.8127V47.5972H67.4828V48.1921Z" fill="#F2F3F5"/>
<path d="M75.7701 51.7623C75.4149 51.5243 75.1781 51.2863 74.9414 50.9293C74.7046 50.5723 74.5862 50.2154 74.5862 49.7394C74.5862 49.2634 74.7046 48.9064 74.9414 48.5495C75.1781 48.1925 75.4149 47.9545 75.7701 47.7165C76.1253 47.4785 76.4804 47.4785 76.954 47.4785C77.3092 47.4785 77.6643 47.4785 77.9011 47.5975C78.1379 47.7165 78.3747 47.8355 78.6115 48.0735L78.2563 48.4305C77.9011 48.0735 77.5459 47.9545 77.0724 47.9545C76.7172 47.9545 76.4804 48.0735 76.1253 48.1925C75.8885 48.3115 75.6517 48.5495 75.5333 48.7874C75.4149 49.0254 75.2965 49.3824 75.2965 49.6204C75.2965 49.9774 75.4149 50.2154 75.5333 50.4533C75.6517 50.6913 75.8885 50.9293 76.1253 51.0483C76.362 51.1673 76.7172 51.2863 77.0724 51.2863C77.5459 51.2863 78.0195 51.1673 78.2563 50.8103L78.6115 51.1673C78.3747 51.4053 78.1379 51.5243 77.9011 51.6433C77.6643 51.7623 77.3092 51.7623 76.954 51.7623C76.4804 52.0003 76.1253 51.8813 75.7701 51.7623Z" fill="#F2F3F5"/>
<path d="M84.2943 50.691C84.2943 50.453 84.176 50.215 84.0576 50.096C83.9392 49.977 83.584 49.977 83.3472 49.977H81.9265V51.4049H83.3472C83.9392 51.5239 84.2943 51.286 84.2943 50.691ZM81.8081 49.5011H82.992C83.3472 49.5011 83.584 49.3821 83.7024 49.2631C83.8208 49.1441 83.9392 49.0251 83.9392 48.7871C83.9392 48.5491 83.8208 48.4301 83.7024 48.3111C83.584 48.1921 83.3472 48.0731 82.992 48.0731H81.8081V49.5011ZM84.6495 50.096C84.7679 50.334 84.8863 50.453 84.8863 50.81C84.8863 51.167 84.7679 51.5239 84.4127 51.6429C84.176 51.8809 83.7024 51.9999 83.2288 51.9999H81.2162V47.5972H83.1104C83.584 47.5972 83.9392 47.7162 84.2943 47.8352C84.5311 48.0731 84.6495 48.3111 84.6495 48.6681C84.6495 48.9061 84.5311 49.1441 84.4127 49.2631C84.2944 49.3821 84.176 49.5011 83.9392 49.6201C84.2944 49.739 84.5311 49.858 84.6495 50.096Z" fill="#F2F3F5"/>
<path d="M90.8059 51.4049V51.9999H87.6093V47.5972H90.8059V48.1921H88.3197V49.5011H90.4507V49.977H88.3197V51.4049H90.8059Z" fill="#F2F3F5"/>
<path d="M96.6069 48.1921H95.0678V51.9999H94.4758V48.1921H92.9368V47.5972H96.6069V48.1921Z" fill="#F2F3F5"/>
<path d="M101.698 50.334L100.751 48.1921L99.8035 50.334H101.698ZM101.935 50.929H99.5667L99.0932 51.9999H98.5012L100.514 47.5972H101.106L103.118 51.9999H102.408L101.935 50.929Z" fill="#F2F3F5"/>
</g>
<defs>
<clipPath id="clip0">
<rect width="103" height="52" fill="white"/>
</clipPath>
</defs>
</svg>
