<svg viewBox="0 0 97 97" xmlns="http://www.w3.org/2000/svg">
<path d="M33.4718 42.8271H30.8246C30.8246 45.7544 33.1991 48.1349 36.1189 48.1349C39.0388 48.1349 41.4133 45.7544 41.4133 42.8271H38.7661C38.7661 44.2908 37.5789 45.481 36.1189 45.481C34.659 45.481 33.4718 44.2908 33.4718 42.8271Z" />
<path d="M29.5011 36.1925C30.2321 36.1925 30.8247 35.5984 30.8247 34.8655C30.8247 34.1327 30.2321 33.5386 29.5011 33.5386C28.7701 33.5386 28.1775 34.1327 28.1775 34.8655C28.1775 35.5984 28.7701 36.1925 29.5011 36.1925Z" />
<path d="M42.7369 36.1925C43.4679 36.1925 44.0605 35.5984 44.0605 34.8655C44.0605 34.1327 43.4679 33.5386 42.7369 33.5386C42.0059 33.5386 41.4133 34.1327 41.4133 34.8655C41.4133 35.5984 42.0059 36.1925 42.7369 36.1925Z" />
<path d="M89.0625 32.9894L77.6982 21.5963H55.8298C55.2872 18.5895 53.1403 16.0882 50.1847 15.1461C46.7235 10.0413 40.9977 7 34.8311 7C24.5945 7 16.2651 15.3504 16.2651 25.613V40.561C16.2651 45.5449 13.5028 50.026 9.05553 52.2553L7.87092 52.8484L8.46257 54.036C8.55522 54.2205 10.2653 57.5365 14.7814 59.1753L13.3334 59.6596C9.54658 60.9242 7 64.4658 7 68.4691V89.2702H65.2379V77.3278H89.0625V32.9894ZM78.4738 26.1265L84.5438 32.2118H78.4738V26.1265ZM38.6272 28.9648C38.2261 28.162 38.0752 27.2624 38.1732 26.3853C41.1473 28.3451 44.488 29.7875 48.0312 30.6275V40.1735C48.0312 46.7591 42.6879 52.1159 36.119 52.1159C29.55 52.1159 24.2067 46.7591 24.2067 40.1735V26.7515C27.3541 28.6809 30.8828 29.9587 34.5426 30.4828L39.7575 31.2286L38.6272 28.9648ZM36.119 54.7698C38.5027 54.7698 40.7489 54.1807 42.7369 53.1589V55.4744L36.119 61.0038L29.501 55.4744V53.1589C31.489 54.1807 33.7352 54.7698 36.119 54.7698ZM27.8955 57.5896L34.1574 62.8204L27.3369 69.6581L23.1544 59.1726L27.8955 57.5896ZM34.5929 73.347H37.6451L39.8515 86.6164H32.3864L34.5929 73.347ZM37.9455 70.6931H34.2924L32.8854 67.8495L36.119 64.6077L39.3525 67.8495L37.9455 70.6931ZM38.0792 62.8204L44.3411 57.5896L49.0822 59.1739L44.8996 69.6594L38.0792 62.8204ZM45.3841 55.14V51.4233C47.6487 49.5457 49.3257 46.99 50.1344 44.0747C51.3905 43.9247 52.5301 43.4298 53.4699 42.6734C54.0854 47.3045 56.7008 51.3954 60.6742 53.8848C59.5372 55.2157 56.9575 57.3574 52.1847 57.4131L45.3841 55.14ZM50.6784 40.1735V33.7829C52.2151 34.3323 53.3256 35.7919 53.3256 37.5196C53.3256 39.2672 52.1886 40.7401 50.6228 41.2735C50.6506 40.9086 50.6784 40.545 50.6784 40.1735ZM34.8311 9.65388C40.1665 9.65388 45.118 12.3104 48.0776 16.7596L48.5382 17.451L49.0345 17.5757C51.5613 18.2087 53.3256 20.4751 53.3256 23.0865V32.2463C52.5526 31.6598 51.6619 31.2206 50.6784 31.0203V28.4739L49.4872 28.231C45.4344 27.4189 41.543 25.674 38.2367 23.1887L36.9687 22.2346L36.2593 23.6557C35.5935 24.9906 35.3645 26.4967 35.5723 27.9484L34.9171 27.8542C30.8511 27.273 26.9637 25.6594 23.6772 23.1873L21.5595 21.5963V31.0189C20.576 31.2206 19.6853 31.6585 18.9123 32.245V25.613C18.9123 16.814 26.0544 9.65388 34.8311 9.65388ZM21.6151 41.2735C20.0493 40.7401 18.9123 39.2672 18.9123 37.5196C18.9123 35.7919 20.0228 34.3323 21.5595 33.7829V40.1735C21.5595 40.545 21.5873 40.9086 21.6151 41.2735ZM11.5611 53.8861C15.5345 51.3967 18.1512 47.3058 18.768 42.6734C19.7078 43.4298 20.8474 43.9247 22.1035 44.0747C22.9122 46.99 24.5892 49.5457 26.8538 51.4233V55.14L20.0532 57.4131C15.2685 57.3574 12.6954 55.2197 11.5611 53.8861ZM9.64718 68.4691C9.64718 65.6096 11.4658 63.0791 14.1725 62.1755L20.6383 60.0152L26.3707 74.382L30.9106 69.8306L32.0966 72.2257L29.7035 86.6164H20.2359V76.0009H17.5887V86.6164H9.64718V68.4691ZM62.5907 86.6164H54.6492V76.0009H52.002V86.6164H42.5344L40.1427 72.2257L41.3286 69.8306L45.8685 74.382L51.601 60.0152L58.0667 62.1755C60.7721 63.0804 62.5907 65.6096 62.5907 68.4691V86.6164ZM65.2379 74.6739V68.4691C65.2379 67.3943 65.042 66.358 64.6992 65.3853H83.7682V62.7315H81.121V53.4429H78.4738V62.7315H75.8266V50.789H73.1794V62.7315H70.5323V56.0968H67.8851V62.7315H63.234C62.1407 61.3408 60.6649 60.2474 58.9032 59.6596L57.4552 59.1753C61.9713 57.5365 63.6827 54.2218 63.774 54.036L64.3657 52.8484L63.181 52.2553C58.7351 50.026 55.9728 45.5449 55.9728 40.561V24.2502H75.8266V34.8657H86.4153V74.6739H65.2379Z" />
<path d="M83.7681 37.5195H81.121V40.1734H83.7681V37.5195Z" />
<path d="M78.4737 37.5195H58.6199V40.1734H78.4737V37.5195Z" />
<path d="M83.7681 42.8271H58.6199V45.481H83.7681V42.8271Z"/>
</svg>
