<svg viewBox="0 0 21 21" xmlns="http://www.w3.org/2000/svg">
<path d="M10.5 0C4.71141 0 0 4.71141 0 10.5C0 13.7019 1.44035 16.5702 3.70588 18.4973L3.70835 18.4998C3.93812 18.6974 4.17776 18.8827 4.42235 19.0581C4.48412 19.1026 4.54341 19.1446 4.60765 19.1866C6.28765 20.3305 8.31847 21 10.5 21C12.6815 21 14.7148 20.3305 16.3924 19.1866C16.4566 19.1446 16.5159 19.1026 16.5776 19.0581C16.8247 18.8827 17.0644 18.6974 17.2941 18.4973L17.2966 18.4948C19.5621 16.5702 21 13.6994 21 10.5C21 4.71141 16.2911 0 10.5 0ZM10.5 19.7647C9.36847 19.7647 8.28388 19.5596 7.27835 19.1866C7.16965 19.1446 7.06094 19.1026 6.95224 19.0581C6.25553 18.7691 5.60082 18.396 5.00294 17.9513C4.99553 17.9464 4.98812 17.9414 4.98071 17.934C5.30682 15.2732 7.65635 13.2028 10.5 13.2028C13.3436 13.2028 15.6956 15.2732 16.0218 17.934C16.0144 17.9389 16.0069 17.9464 15.9971 17.9513C15.3992 18.396 14.7445 18.7691 14.0478 19.0581C13.9391 19.1026 13.8304 19.1446 13.7216 19.1866C12.7186 19.5596 11.634 19.7647 10.5 19.7647ZM7.51553 8.98306C7.51553 7.33765 8.85459 5.99859 10.5 5.99859C12.1479 5.99859 13.4869 7.33765 13.4869 8.98306C13.4869 10.6285 12.1479 11.9675 10.5 11.9675C8.85459 11.9675 7.51553 10.6285 7.51553 8.98306ZM17.1236 16.9705C17.1162 16.9779 17.1064 16.9878 17.0989 16.9952C16.5678 14.8927 14.9965 13.1855 12.9508 12.4147C14.0206 11.6464 14.7222 10.3962 14.7222 8.98306C14.7222 6.65577 12.8273 4.76329 10.5 4.76329C8.17271 4.76329 6.28023 6.65577 6.28023 8.98306C6.28023 10.3962 6.98188 11.6464 8.05165 12.4147C6.006 13.1855 4.43471 14.8927 3.90106 16.9952L3.87635 16.9705C2.24329 15.3028 1.23529 13.0151 1.23529 10.5C1.23529 5.39082 5.39329 1.23529 10.5 1.23529C15.6092 1.23529 19.7647 5.39082 19.7647 10.5C19.7647 13.0151 18.7567 15.3028 17.1236 16.9705Z"/>
</svg>
